<?xml version="1.0" encoding="utf-8"?>
<!-- Generator: Adobe Illustrator 27.5.0, SVG Export Plug-In . SVG Version: 6.00 Build 0)  -->
<svg version="1.1" xmlns="http://www.w3.org/2000/svg" xmlns:xlink="http://www.w3.org/1999/xlink" x="0px" y="0px"
	 viewBox="0 0 750 500" style="enable-background:new 0 0 750 500;" xml:space="preserve">
<g id="Background_complete">
	<rect x="16.649" y="107.647" style="fill:#EBEBEB;" width="712.496" height="17.337"/>
	<rect x="16.649" y="84.858" style="fill:#EBEBEB;" width="712.496" height="8.669"/>
	<rect x="450.439" y="104.006" style="fill:#E0E0E0;" width="11.543" height="25.013"/>
	<rect x="603.493" y="104.006" style="fill:#E0E0E0;" width="11.543" height="25.013"/>
	<rect x="498.74" y="82.892" style="fill:#E0E0E0;" width="10.792" height="12.601"/>
	<rect x="38.827" y="103.809" style="fill:#E0E0E0;" width="11.543" height="25.013"/>
	<rect x="86.324" y="82.892" style="fill:#E0E0E0;" width="10.792" height="12.601"/>
	<rect x="667.019" y="82.892" style="fill:#E0E0E0;" width="10.792" height="12.601"/>
	<rect x="60.987" y="119.959" style="fill:#EBEBEB;" width="12.524" height="350.545"/>
	<rect x="506.718" y="119.959" style="fill:#EBEBEB;" width="12.524" height="350.545"/>
	<rect x="184.325" y="431.118" style="fill:#E0E0E0;" width="27.756" height="11.526"/>
	<g>
		<rect x="414.749" y="206.837" style="fill:#E0E0E0;" width="37.111" height="11.526"/>
		<rect x="435.373" y="195.398" style="fill:#F0F0F0;" width="37.111" height="11.526"/>
	</g>
	<g>
		<rect x="104.951" y="274.449" style="fill:#E0E0E0;" width="37.111" height="11.526"/>
		<rect x="125.574" y="263.011" style="fill:#F0F0F0;" width="37.111" height="11.526"/>
	</g>
	<g>
		<rect x="592.795" y="413.002" style="fill:#E0E0E0;" width="37.111" height="11.526"/>
		<rect x="613.419" y="401.564" style="fill:#F0F0F0;" width="37.111" height="11.526"/>
	</g>
	<g>
		<rect x="596.212" y="51.161" style="fill:#E0E0E0;" width="37.111" height="11.526"/>
		<rect x="616.835" y="39.722" style="fill:#F0F0F0;" width="37.111" height="11.526"/>
	</g>
	<g>
		<rect x="362.225" y="39.722" style="fill:#E0E0E0;" width="37.111" height="11.526"/>
		<rect x="85.341" y="35.493" style="fill:#E0E0E0;" width="37.111" height="11.526"/>
		<rect x="67.769" y="47.149" style="fill:#F0F0F0;" width="37.111" height="11.526"/>
	</g>
	<rect x="650.499" y="176.296" style="fill:#E0E0E0;" width="37.111" height="11.526"/>
	<g>
		<g>
			<g>
				<g>
					<g>
						<g>
							<path style="fill:#E0E0E0;" d="M673.734,339.783H492.988c-3.232,0-5.862-2.63-5.862-5.862V70.647
								c0-3.232,2.63-5.862,5.862-5.862h180.746c3.232,0,5.862,2.629,5.862,5.862v263.273
								C679.596,337.153,676.966,339.783,673.734,339.783z M492.988,65.035c-3.095,0-5.612,2.518-5.612,5.612v263.273
								c0,3.095,2.518,5.612,5.612,5.612h180.746c3.095,0,5.612-2.518,5.612-5.612V70.647c0-3.094-2.518-5.612-5.612-5.612H492.988z
								"/>
						</g>
					</g>
					<g>
						<g>
							<path style="fill:#E0E0E0;" d="M465.306,339.783H284.56c-3.232,0-5.862-2.63-5.862-5.862V70.647
								c0-3.232,2.629-5.862,5.862-5.862h180.747c3.232,0,5.862,2.629,5.862,5.862v263.273
								C471.168,337.153,468.538,339.783,465.306,339.783z M284.56,65.035c-3.094,0-5.612,2.518-5.612,5.612v263.273
								c0,3.095,2.518,5.612,5.612,5.612h180.747c3.095,0,5.612-2.518,5.612-5.612V70.647c0-3.094-2.518-5.612-5.612-5.612H284.56z"
								/>
						</g>
					</g>
				</g>
				<g>
					<g>
						<g>
							<path style="fill:#E0E0E0;" d="M257.012,339.783H76.266c-3.232,0-5.862-2.63-5.862-5.862V70.647
								c0-3.232,2.629-5.862,5.862-5.862h180.746c3.232,0,5.862,2.629,5.862,5.862v263.273
								C262.875,337.153,260.245,339.783,257.012,339.783z M76.266,65.035c-3.094,0-5.612,2.518-5.612,5.612v263.273
								c0,3.095,2.518,5.612,5.612,5.612h180.746c3.095,0,5.612-2.518,5.612-5.612V70.647c0-3.094-2.518-5.612-5.612-5.612H76.266z"
								/>
						</g>
					</g>
				</g>
			</g>
			<g>
				<g>
					<rect y="400.852" style="fill:#E0E0E0;" width="750" height="0.12"/>
				</g>
			</g>
		</g>
		<g>
			<rect x="653.626" y="430.228" style="fill:#EBEBEB;" width="55.729" height="0.421"/>
			<rect x="495.044" y="434.794" style="fill:#EBEBEB;" width="14.627" height="0.421"/>
			<rect x="40.645" y="417.431" style="fill:#EBEBEB;" width="72.674" height="0.421"/>
			<rect x="128.299" y="417.431" style="fill:#EBEBEB;" width="10.656" height="0.421"/>
			<rect x="173.586" y="424.535" style="fill:#EBEBEB;" width="157.613" height="0.421"/>
		</g>
	</g>
</g>
<g id="Background_simple" style="display:none;">
	<g style="display:inline;">
		<path style="fill:#407BFF;" d="M239.486,51.029c-41.117,2.439-80.767,7.633-115.932,15.779
			c-41.446,9.601-83.793,24.558-71.286,44.122c23.091,36.118,133.866,36.776,111.748,61.061
			c-25.053,27.508-8.252,59.775,104.165,68.748c213.52,17.043,471.635-82.678,399.14-137.474
			C622.19,69.151,457.809,38.077,239.486,51.029z"/>
		<path style="opacity:0.9;fill:#FFFFFF;" d="M239.486,51.029c-41.117,2.439-80.767,7.633-115.932,15.779
			c-41.446,9.601-83.793,24.558-71.286,44.122c23.091,36.118,133.866,36.776,111.748,61.061
			c-25.053,27.508-8.252,59.775,104.165,68.748c213.52,17.043,471.635-82.678,399.14-137.474
			C622.19,69.151,457.809,38.077,239.486,51.029z"/>
	</g>
</g>
<g id="Shadow">
	<g>
		<g>
			<path style="fill:#F5F5F5;" d="M711.383,470.548c0,4.2-150.604,7.604-336.383,7.604s-336.383-3.405-336.383-7.604
				c0-4.2,150.604-7.605,336.383-7.605S711.383,466.348,711.383,470.548z"/>
		</g>
	</g>
</g>
<g id="Machine">
	<g>
		<g>
			<g>
				<g>
					<path style="fill:#407BFF;" d="M376.591,172.518c4.988,0,9.975,0,14.963,0c0.811,0,1.5-0.687,1.5-1.5c0-10.433,0-20.867,0-31.3
						c0-1.456,0-2.912,0-4.368c0-0.811-0.687-1.5-1.5-1.5c-3.838,0-7.675,0-11.513,0c-1.93,0-1.934,3,0,3c3.838,0,7.675,0,11.513,0
						c-0.5-0.5-1-1-1.5-1.5c0,10.433,0,20.867,0,31.3c0,1.456,0,2.912,0,4.368c0.5-0.5,1-1,1.5-1.5c-4.988,0-9.976,0-14.963,0
						C374.661,169.518,374.658,172.518,376.591,172.518L376.591,172.518z"/>
				</g>
			</g>
			<g>
				<g>
					<path style="fill:#407BFF;" d="M392.053,152.798c1.559,0,3.119,0,4.678,0c0.785,0,1.536-0.69,1.5-1.5
						c-0.036-0.813-0.659-1.5-1.5-1.5c-1.559,0-3.119,0-4.678,0c-0.785,0-1.536,0.69-1.5,1.5
						C390.59,152.11,391.212,152.798,392.053,152.798L392.053,152.798z"/>
				</g>
			</g>
			<g>
				<g>
					<path style="fill:#407BFF;" d="M395.753,146.389c0,3.273,0,6.545,0,9.818c0,0.785,0.69,1.536,1.5,1.5
						c0.813-0.036,1.5-0.659,1.5-1.5c0-3.273,0-6.545,0-9.818c0-0.785-0.69-1.536-1.5-1.5
						C396.44,144.925,395.753,145.548,395.753,146.389L395.753,146.389z"/>
				</g>
			</g>
			<g>
				<path style="fill:#407BFF;" d="M318.345,270.597c0,32.473,0,64.946,0,97.419c0,6.267,7.583,6.277,7.583,0
					c0-32.473,0-64.946,0-97.419C325.928,264.33,318.345,264.32,318.345,270.597L318.345,270.597z"/>
			</g>
			<g style="opacity:0.4;">
				<path style="fill:#FFFFFF;" d="M318.345,270.597c0,32.473,0,64.946,0,97.419c0,6.267,7.583,6.277,7.583,0
					c0-32.473,0-64.946,0-97.419C325.928,264.33,318.345,264.32,318.345,270.597L318.345,270.597z"/>
			</g>
			<path style="fill:#407BFF;" d="M506.035,264.765c-6.701,0-13.402,0-20.104,0c-10.635,0-21.269,0-31.904,0
				c-2.472,0-4.943,0-7.415,0c-2.05,0-3.791,1.737-3.791,3.791c0,6.121,0,12.242,0,18.364c0,9.762,0,19.524,0,29.286
				c0,0.984,0,1.968,0,2.953c-2.372,0-4.744,0-7.115,0c-8.788,0-17.576,0-26.364,0c-10.589,0-21.177,0-31.766,0
				c-9.206,0-18.411,0-27.617,0c-3.231,0-6.539-0.174-9.809-0.139c0-8.152,0-39.917,0-48.069c0-4.879-7.583-4.887-7.583,0
				c0,9.462,0,42.538,0,52c0,2.05,1.737,3.791,3.791,3.791c3.635,0,7.271,0,10.906,0c8.788,0,17.576,0,26.364,0
				c10.589,0,21.177,0,31.766,0c9.206,0,18.411,0,27.617,0c4.456,0,8.947,0.165,13.4,0c0.066-0.003,0.134,0,0.2,0
				c2.049,0,3.791-1.737,3.791-3.791c0-6.121,0-12.242,0-18.364c0-9.762,0-19.524,0-29.286c0-0.984,0-1.969,0-2.953
				c5.438,0,10.875,0,16.312,0c10.635,0,21.269,0,31.904,0c1.208,0,2.416,0,3.624,0c0,5.985,0,11.97,0,17.955
				c0,4.879,7.583,4.887,7.583,0c0-7.249,0-14.497,0-21.746C509.826,266.507,508.089,264.765,506.035,264.765z"/>
			<path style="opacity:0.4;fill:#FFFFFF;" d="M506.035,264.765c-6.701,0-13.402,0-20.104,0c-10.635,0-21.269,0-31.904,0
				c-2.472,0-4.943,0-7.415,0c-2.05,0-3.791,1.737-3.791,3.791c0,6.121,0,12.242,0,18.364c0,9.762,0,19.524,0,29.286
				c0,0.984,0,1.968,0,2.953c-2.372,0-4.744,0-7.115,0c-8.788,0-17.576,0-26.364,0c-10.589,0-21.177,0-31.766,0
				c-9.206,0-18.411,0-27.617,0c-3.231,0-6.539-0.174-9.809-0.139c0-8.152,0-39.917,0-48.069c0-4.879-7.583-4.887-7.583,0
				c0,9.462,0,42.538,0,52c0,2.05,1.737,3.791,3.791,3.791c3.635,0,7.271,0,10.906,0c8.788,0,17.576,0,26.364,0
				c10.589,0,21.177,0,31.766,0c9.206,0,18.411,0,27.617,0c4.456,0,8.947,0.165,13.4,0c0.066-0.003,0.134,0,0.2,0
				c2.049,0,3.791-1.737,3.791-3.791c0-6.121,0-12.242,0-18.364c0-9.762,0-19.524,0-29.286c0-0.984,0-1.969,0-2.953
				c5.438,0,10.875,0,16.312,0c10.635,0,21.269,0,31.904,0c1.208,0,2.416,0,3.624,0c0,5.985,0,11.97,0,17.955
				c0,4.879,7.583,4.887,7.583,0c0-7.249,0-14.497,0-21.746C509.826,266.507,508.089,264.765,506.035,264.765z"/>
			<path style="fill:#407BFF;" d="M352.858,265.82h-51.037c-18.231,0-33.011-14.779-33.011-33.011V105.686
				c0-18.231,14.779-33.011,33.011-33.011h51.037c18.231,0,33.011,14.779,33.011,33.011V232.81
				C385.869,251.041,371.09,265.82,352.858,265.82z"/>
			<path style="opacity:0.4;fill:#FFFFFF;" d="M352.858,265.82h-51.037c-18.231,0-33.011-14.779-33.011-33.011V105.686
				c0-18.231,14.779-33.011,33.011-33.011h51.037c18.231,0,33.011,14.779,33.011,33.011V232.81
				C385.869,251.041,371.09,265.82,352.858,265.82z"/>
			<path style="opacity:0.3;" d="M327.34,216.341L327.34,216.341c-6.205,0-11.236-5.03-11.236-11.236v-51.897
				c0-6.205,5.03-11.236,11.236-11.236h0c6.205,0,11.236,5.03,11.236,11.236v51.897C338.575,211.311,333.545,216.341,327.34,216.341
				z"/>
			<path style="fill:#407BFF;" d="M341.204,80.594h-28.027c-3.46,0-6.266-2.805-6.266-6.266v-3.306c0-3.46,2.805-6.266,6.266-6.266
				h28.027c3.46,0,6.266,2.805,6.266,6.266v3.306C347.469,77.789,344.664,80.594,341.204,80.594z"/>
			<path style="opacity:0.4;fill:#FFFFFF;" d="M341.204,80.594h-28.027c-3.46,0-6.266-2.805-6.266-6.266v-3.306
				c0-3.46,2.805-6.266,6.266-6.266h28.027c3.46,0,6.266,2.805,6.266,6.266v3.306C347.469,77.789,344.664,80.594,341.204,80.594z"/>
			<path style="fill:#407BFF;" d="M386.798,111.283H267.582c-2.01,0-3.639-1.629-3.639-3.639l0,0c0-2.01,1.629-3.639,3.639-3.639
				h119.216c2.01,0,3.639,1.629,3.639,3.639l0,0C390.437,109.654,388.808,111.283,386.798,111.283z"/>
			<path style="opacity:0.4;fill:#FFFFFF;" d="M386.798,111.283H267.582c-2.01,0-3.639-1.629-3.639-3.639l0,0
				c0-2.01,1.629-3.639,3.639-3.639h119.216c2.01,0,3.639,1.629,3.639,3.639l0,0C390.437,109.654,388.808,111.283,386.798,111.283z"
				/>
			<path style="fill:#407BFF;" d="M386.136,237.499H266.92c-2.01,0-3.639-1.629-3.639-3.639l0,0c0-2.01,1.629-3.639,3.639-3.639
				h119.216c2.01,0,3.639,1.629,3.639,3.639l0,0C389.775,235.87,388.146,237.499,386.136,237.499z"/>
			<path style="opacity:0.4;fill:#FFFFFF;" d="M386.136,237.499H266.92c-2.01,0-3.639-1.629-3.639-3.639l0,0
				c0-2.01,1.629-3.639,3.639-3.639h119.216c2.01,0,3.639,1.629,3.639,3.639l0,0C389.775,235.87,388.146,237.499,386.136,237.499z"
				/>
			<g>
				<g>
					<path style="fill:#263238;" d="M307.184,73.192c13.429,0,26.857,0,40.286,0c0.483,0,0.483-0.75,0-0.75
						c-13.429,0-26.857,0-40.286,0C306.701,72.442,306.7,73.192,307.184,73.192L307.184,73.192z"/>
				</g>
			</g>
			<g>
				<g>
					<path style="fill:#263238;" d="M269.765,104.381c29.756,0,59.512,0,89.269,0c8.478,0,16.956,0,25.434,0
						c0.482,0,0.483-0.75,0-0.75c-29.756,0-59.513,0-89.269,0c-8.478,0-16.956,0-25.434,0
						C269.282,103.631,269.282,104.381,269.765,104.381L269.765,104.381z"/>
				</g>
			</g>
			<g>
				<g>
					<path style="fill:#263238;" d="M268.584,111.658c30.559,0,61.119,0,91.678,0c8.636,0,17.273,0,25.909,0
						c0.483,0,0.483-0.75,0-0.75c-30.56,0-61.119,0-91.679,0c-8.636,0-17.273,0-25.909,0
						C268.102,110.908,268.101,111.658,268.584,111.658L268.584,111.658z"/>
				</g>
			</g>
			<g>
				<g>
					<path style="fill:#263238;" d="M265.881,230.624c15.655,0,31.309-0.004,46.964-0.009c16.19-0.005,32.38-0.011,48.57-0.015
						c8.677-0.002,17.354-0.003,26.031-0.003c0.483,0,0.483-0.75,0-0.75c-15.655,0-31.309,0.004-46.964,0.009
						c-16.19,0.005-32.38,0.011-48.57,0.015c-8.677,0.002-17.354,0.003-26.031,0.003
						C265.398,229.874,265.398,230.624,265.881,230.624L265.881,230.624z"/>
				</g>
			</g>
			<g>
				<g>
					<path style="fill:#263238;" d="M268.584,237.874c30.559,0,61.119,0,91.678,0c8.636,0,17.273,0,25.909,0
						c0.483,0,0.483-0.75,0-0.75c-30.56,0-61.119,0-91.679,0c-8.636,0-17.273,0-25.909,0
						C268.102,237.124,268.101,237.874,268.584,237.874L268.584,237.874z"/>
				</g>
			</g>
			<path style="fill:#FFFFFF;" d="M327.378,216.341L327.378,216.341c-6.205,0-11.236-5.03-11.236-11.236v-21.75h22.471v21.75
				C338.614,211.311,333.583,216.341,327.378,216.341z"/>
			<g>
				<g>
					<path style="fill:#263238;" d="M327.378,215.966c-4.808,0-9.158-3.287-10.458-7.92c-0.415-1.481-0.403-2.955-0.403-4.467
						c0-4.502,0-9.004,0-13.507c0-11.432,0-22.865,0-34.297c0-0.854-0.012-1.708,0-2.562c0.062-4.576,2.919-8.749,7.283-10.265
						c4.592-1.594,9.798,0.128,12.548,4.132c1.417,2.064,1.891,4.41,1.891,6.864c0,10.465,0,20.93,0,31.395
						c0,5.307,0,10.614,0,15.92c0,1.207,0.005,2.413,0,3.62c-0.015,3.458-1.478,6.709-4.247,8.837
						C332.082,215.187,329.778,215.929,327.378,215.966c-0.482,0.007-0.484,0.757,0,0.75c4.404-0.067,8.498-2.525,10.438-6.522
						c0.938-1.933,1.173-3.965,1.173-6.072c0-4.569,0-9.138,0-13.707c0-11.831,0-23.662,0-35.493c0-1.411,0.036-2.811-0.268-4.203
						c-0.927-4.25-4.299-7.736-8.527-8.778c-7.527-1.857-14.405,4.066-14.426,11.615c-0.031,10.757,0,21.513,0,32.27
						c0,5.451,0,10.901,0,16.352c0,0.971-0.012,1.942,0,2.913c0.05,4.072,2.142,7.879,5.656,9.984
						c1.79,1.072,3.868,1.641,5.954,1.641C327.861,216.716,327.862,215.966,327.378,215.966z"/>
				</g>
			</g>
			<rect x="343.745" y="169.248" style="fill:#FFFFFF;" width="2.824" height="33.708"/>
			<rect x="310.478" y="263.011" style="fill:#407BFF;" width="34.678" height="9.286"/>
			<rect x="310.478" y="263.011" style="opacity:0.4;fill:#FFFFFF;" width="34.678" height="9.286"/>
			<rect x="502.212" y="274.511" style="opacity:0.3;" width="7.61" height="4.891"/>
			<g>
				<g>
					<path style="fill:#263238;" d="M443.01,276.961c2.288,0.014,4.576,0.028,6.865,0.041c0.483,0.003,0.483-0.747,0-0.75
						c-2.288-0.014-4.576-0.028-6.865-0.041C442.527,276.208,442.526,276.958,443.01,276.961L443.01,276.961z"/>
				</g>
			</g>
			<g>
				<g>
					<path style="fill:#263238;" d="M453.936,272c0-2.31,0-4.62,0-6.93c0-0.483-0.75-0.483-0.75,0c0,2.31,0,4.62,0,6.93
						C453.186,272.483,453.936,272.484,453.936,272L453.936,272z"/>
				</g>
			</g>
			<g>
				<g>
					<path style="fill:#263238;" d="M498.172,271.862c0-2.264,0-4.528,0-6.792c0-0.483-0.75-0.483-0.75,0c0,2.264,0,4.528,0,6.792
						C497.422,272.345,498.172,272.346,498.172,271.862L498.172,271.862z"/>
				</g>
			</g>
			<g>
				<g>
					<path style="fill:#263238;" d="M502.5,275.106c2.441,0,4.882,0,7.322,0c0.483,0,0.483-0.75,0-0.75c-2.441,0-4.882,0-7.322,0
						C502.018,274.356,502.017,275.106,502.5,275.106L502.5,275.106z"/>
				</g>
			</g>
			<g>
				<g>
					<path style="fill:#263238;" d="M443.229,316.638c2.287,0,4.574,0,6.861,0c0.483,0,0.483-0.75,0-0.75c-2.287,0-4.574,0-6.861,0
						C442.747,315.888,442.746,316.638,443.229,316.638L443.229,316.638z"/>
				</g>
			</g>
			<g>
				<g>
					<path style="fill:#263238;" d="M439.943,319.548c0,2.326,0,4.652,0,6.978c0,0.483,0.75,0.483,0.75,0c0-2.326,0-4.652,0-6.978
						C440.693,319.066,439.943,319.065,439.943,319.548L439.943,319.548z"/>
				</g>
			</g>
			<rect x="318.35" y="272.711" style="opacity:0.3;" width="7.582" height="2.606"/>
			<rect x="332.557" y="272.711" style="opacity:0.3;" width="7.582" height="2.606"/>
			<g>
				<g>
					<path style="fill:#263238;" d="M310.732,272.722c11.535,0,23.07,0,34.605,0c0.483,0,0.483-0.75,0-0.75
						c-11.535,0-23.07,0-34.605,0C310.25,271.972,310.249,272.722,310.732,272.722L310.732,272.722z"/>
				</g>
			</g>
			<g>
				<g>
					<path style="fill:#263238;" d="M309.759,266.268c12.061,0,24.121,0,36.182,0c0.483,0,0.483-0.75,0-0.75
						c-12.061,0-24.121,0-36.182,0C309.276,265.518,309.276,266.268,309.759,266.268L309.759,266.268z"/>
				</g>
			</g>
			<g>
				<g>
					<path style="fill:#263238;" d="M338.405,104.425c2.015,0,4.031,0,6.046,0c0.483,0,0.483-0.75,0-0.75c-2.015,0-4.031,0-6.046,0
						C337.922,103.675,337.922,104.425,338.405,104.425L338.405,104.425z"/>
				</g>
			</g>
		</g>
		<g>
			<g>
				<rect x="581.323" y="373.095" style="fill:#407BFF;" width="8.363" height="94.198"/>
				<rect x="581.323" y="373.964" style="opacity:0.3;" width="8.363" height="7.681"/>
			</g>
			<g>
				<rect x="655.906" y="373.095" style="fill:#407BFF;" width="8.363" height="94.198"/>
				<rect x="655.906" y="373.964" style="opacity:0.3;" width="8.363" height="7.681"/>
			</g>
			<rect x="345.157" y="373.095" style="fill:#407BFF;" width="8.363" height="94.198"/>
			<rect x="345.157" y="373.095" style="opacity:0.3;" width="8.363" height="94.198"/>
			<rect x="429.494" y="373.095" style="fill:#407BFF;" width="8.363" height="94.198"/>
			<rect x="429.494" y="373.095" style="opacity:0.3;" width="8.363" height="94.198"/>
			<g>
				<path style="fill:#263238;" d="M667.613,373.964H323.93c-5.886,0-10.658-4.772-10.658-10.658v-1.413
					c0-5.887,4.772-10.659,10.658-10.659h343.682c5.886,0,10.658,4.772,10.658,10.659v1.413
					C678.271,369.192,673.499,373.964,667.613,373.964z"/>
				<path style="opacity:0.3;" d="M664.435,370.578H325.268c-4.407,0-7.979-3.573-7.979-7.98l0,0c0-4.407,3.573-7.979,7.979-7.979
					h339.168c4.407,0,7.979,3.573,7.979,7.979l0,0C672.415,367.006,668.842,370.578,664.435,370.578z"/>
			</g>
			<ellipse transform="matrix(0.229 -0.9734 0.9734 0.229 -2.8234 721.6331)" cx="454.124" cy="362.599" rx="7.954" ry="7.954"/>
			<ellipse transform="matrix(0.5885 -0.8085 0.8085 0.5885 -67.457 592.6603)" cx="548.491" cy="362.599" rx="7.954" ry="7.954"/>
			<ellipse transform="matrix(0.229 -0.9734 0.9734 0.229 -102.7101 595.5248)" cx="324.574" cy="362.599" rx="7.954" ry="7.954"/>
			<ellipse transform="matrix(0.229 -0.9734 0.9734 0.229 -77.7384 627.0518)" cx="356.961" cy="362.599" rx="7.954" ry="7.954"/>
			<ellipse transform="matrix(0.229 -0.9734 0.9734 0.229 -52.7668 658.5789)" cx="389.349" cy="362.599" rx="7.954" ry="7.954"/>
			<ellipse transform="matrix(0.229 -0.9734 0.9734 0.229 -27.7951 690.106)" cx="421.736" cy="362.599" rx="7.954" ry="7.954"/>
			<ellipse transform="matrix(0.9231 -0.3845 0.3845 0.9231 -94.9265 250.4724)" cx="578.84" cy="362.599" rx="7.955" ry="7.954"/>
			<ellipse transform="matrix(0.229 -0.9734 0.9734 0.229 113.3657 868.3234)" cx="604.818" cy="362.599" rx="7.954" ry="7.954"/>
			<ellipse transform="matrix(0.229 -0.9734 0.9734 0.229 133.3606 893.5671)" cx="630.75" cy="362.599" rx="7.954" ry="7.954"/>
			<ellipse transform="matrix(0.7071 -0.7071 0.7071 0.7071 -61.5262 576.6602)" cx="665.327" cy="362.599" rx="7.954" ry="7.954"/>
			<rect x="429.494" y="373.964" style="opacity:0.3;" width="8.363" height="7.681"/>
			<rect x="345.157" y="373.964" style="opacity:0.3;" width="8.363" height="7.681"/>
		</g>
		<g>
			<g>
				<g>
					<path style="fill:#407BFF;" d="M183.64,65.27c0-6.564,0-13.128,0-19.692c-1.25,1.25-2.5,2.5-3.75,3.75
						c4.935,0,9.869,0,14.804,0c11.763,0,23.525,0,35.288,0c14.305,0,28.609,0,42.914,0c12.294,0,24.589,0,36.883,0
						c4.076,0,8.152,0,12.228,0c1.92,0,3.865,0.091,5.784,0c0.081-0.004,0.163,0,0.244,0c-1.25-1.25-2.5-2.5-3.75-3.75
						c0,6.243,0,12.486,0,18.728c0,0.891,0,1.782,0,2.673c0,1.961,1.725,3.841,3.75,3.75c2.032-0.091,3.75-1.648,3.75-3.75
						c0-6.243,0-12.486,0-18.728c0-0.891,0-1.782,0-2.673c0-2.027-1.718-3.75-3.75-3.75c-4.935,0-9.869,0-14.804,0
						c-11.763,0-23.525,0-35.288,0c-14.305,0-28.609,0-42.914,0c-12.294,0-24.588,0-36.883,0c-5.997,0-12.017-0.155-18.012,0
						c-0.081,0.002-0.163,0-0.244,0c-2.027,0-3.75,1.718-3.75,3.75c0,6.564,0,13.128,0,19.692c0,1.962,1.725,3.841,3.75,3.75
						C181.921,68.929,183.64,67.372,183.64,65.27L183.64,65.27z"/>
				</g>
			</g>
			<g>
				<g>
					<path style="fill:#263238;" d="M321.243,48.976c0-2.303,0-4.605,0-6.907c0-0.483-0.75-0.483-0.75,0c0,2.303,0,4.605,0,6.907
						C320.493,49.458,321.243,49.459,321.243,48.976L321.243,48.976z"/>
				</g>
			</g>
			<g>
				<g>
					<path style="fill:#263238;" d="M331.58,51.734c-2.363,0-4.727,0-7.091,0c-0.483,0-0.483,0.75,0,0.75c2.363,0,4.727,0,7.091,0
						C332.063,52.484,332.064,51.734,331.58,51.734L331.58,51.734z"/>
				</g>
			</g>
			<g>
				<g>
					<path style="fill:#263238;" d="M176.305,53.286c2.413,0,4.825,0,7.238,0c0.483,0,0.483-0.75,0-0.75c-2.413,0-4.825,0-7.238,0
						C175.823,52.536,175.822,53.286,176.305,53.286L176.305,53.286z"/>
				</g>
			</g>
			<g>
				<g>
					<path style="fill:#263238;" d="M188.357,48.83c0-2.23,0-4.46,0-6.69c0-0.483-0.75-0.483-0.75,0c0,2.23,0,4.46,0,6.69
						C187.607,49.312,188.357,49.313,188.357,48.83L188.357,48.83z"/>
				</g>
			</g>
			<rect x="176.092" y="62.3" style="opacity:0.3;" width="7.589" height="2.459"/>
			<rect x="324.241" y="62.3" style="opacity:0.3;" width="7.589" height="2.459"/>
		</g>
		<g>
			<g>
				<path style="fill:#407BFF;" d="M433.114,318.799c-0.852-1.24-2.166-2.078-3.185-3.184c-1.908-2.07-2.681-5.126-1.988-7.854
					l-2.05-0.013l0-0.017l-1.371,0.008l-1.371-0.008l0,0.017l-2.05,0.013c0.693,2.728-0.08,5.784-1.988,7.854
					c-1.02,1.106-2.334,1.944-3.185,3.184c-1.225,1.785-1.298,4.099-1.226,6.263v23.22c0,1.63,1.322,2.952,2.952,2.952h5.136h3.464
					h5.136c1.63,0,2.952-1.321,2.952-2.952v-23.22C434.412,322.898,434.339,320.584,433.114,318.799z"/>
			</g>
			<g style="opacity:0.7;">
				<path style="fill:#FFFFFF;" d="M433.114,318.799c-0.852-1.24-2.166-2.078-3.185-3.184c-1.908-2.07-2.681-5.126-1.988-7.854
					l-2.05-0.013l0-0.017l-1.371,0.008l-1.371-0.008l0,0.017l-2.05,0.013c0.693,2.728-0.08,5.784-1.988,7.854
					c-1.02,1.106-2.334,1.944-3.185,3.184c-1.225,1.785-1.298,4.099-1.226,6.263v23.22c0,1.63,1.322,2.952,2.952,2.952h5.136h3.464
					h5.136c1.63,0,2.952-1.321,2.952-2.952v-23.22C434.412,322.898,434.339,320.584,433.114,318.799z"/>
			</g>
			<path style="fill:#407BFF;" d="M427.961,309.164h-6.883c-0.429,0-0.776-0.348-0.776-0.776v-0.409
				c0-0.429,0.348-0.776,0.776-0.776h6.883c0.429,0,0.776,0.347,0.776,0.776v0.409C428.737,308.817,428.39,309.164,427.961,309.164z
				"/>
			<path style="opacity:0.2;" d="M427.704,310.259h-6.368c0.023-0.358,0.02-0.716-0.019-1.1l6.387,0.005
				C427.684,309.55,427.683,309.916,427.704,310.259z"/>
			<path style="opacity:0.7;fill:#FFFFFF;" d="M427.961,309.164h-6.883c-0.429,0-0.776-0.348-0.776-0.776v-0.409
				c0-0.429,0.348-0.776,0.776-0.776h6.883c0.429,0,0.776,0.347,0.776,0.776v0.409C428.737,308.817,428.39,309.164,427.961,309.164z
				"/>
		</g>
		<g>
			<g>
				<path style="fill:#407BFF;" d="M366.332,318.799c-0.852-1.24-2.166-2.078-3.185-3.184c-1.908-2.07-2.681-5.126-1.988-7.854
					l-2.05-0.013l0-0.017l-1.371,0.008l-1.371-0.008l0,0.017l-2.05,0.013c0.693,2.728-0.08,5.784-1.988,7.854
					c-1.02,1.106-2.334,1.944-3.185,3.184c-1.225,1.785-1.299,4.099-1.226,6.263v23.22c0,1.63,1.322,2.952,2.952,2.952h5.136h3.464
					h5.136c1.63,0,2.952-1.321,2.952-2.952v-23.22C367.63,322.898,367.557,320.584,366.332,318.799z"/>
			</g>
			<g style="opacity:0.7;">
				<path style="fill:#FFFFFF;" d="M366.332,318.799c-0.852-1.24-2.166-2.078-3.185-3.184c-1.908-2.07-2.681-5.126-1.988-7.854
					l-2.05-0.013l0-0.017l-1.371,0.008l-1.371-0.008l0,0.017l-2.05,0.013c0.693,2.728-0.08,5.784-1.988,7.854
					c-1.02,1.106-2.334,1.944-3.185,3.184c-1.225,1.785-1.299,4.099-1.226,6.263v23.22c0,1.63,1.322,2.952,2.952,2.952h5.136h3.464
					h5.136c1.63,0,2.952-1.321,2.952-2.952v-23.22C367.63,322.898,367.557,320.584,366.332,318.799z"/>
			</g>
			<path style="fill:#407BFF;" d="M361.179,309.164h-6.883c-0.429,0-0.776-0.348-0.776-0.776v-0.409
				c0-0.429,0.347-0.776,0.776-0.776h6.883c0.429,0,0.776,0.347,0.776,0.776v0.409C361.955,308.817,361.607,309.164,361.179,309.164
				z"/>
			<path style="opacity:0.2;" d="M360.922,310.259h-6.368c0.022-0.358,0.02-0.716-0.019-1.1l6.387,0.005
				C360.902,309.55,360.9,309.916,360.922,310.259z"/>
			<path style="opacity:0.7;fill:#FFFFFF;" d="M361.179,309.164h-6.883c-0.429,0-0.776-0.348-0.776-0.776v-0.409
				c0-0.429,0.347-0.776,0.776-0.776h6.883c0.429,0,0.776,0.347,0.776,0.776v0.409C361.955,308.817,361.607,309.164,361.179,309.164
				z"/>
		</g>
		<g>
			<g>
				<path style="fill:#407BFF;" d="M577.124,317.661c-0.883-1.286-2.245-2.154-3.302-3.301c-1.978-2.146-2.78-5.314-2.061-8.142
					l-2.125-0.013l0-0.017l-1.421,0.009l-1.421-0.009l0,0.017l-2.125,0.013c0.719,2.828-0.083,5.996-2.061,8.142
					c-1.057,1.147-2.419,2.015-3.302,3.301c-1.27,1.85-1.346,4.249-1.271,6.492v24.071c0,1.69,1.37,3.06,3.06,3.06h5.324h3.591
					h5.324c1.69,0,3.06-1.37,3.06-3.06v-24.071C578.47,321.91,578.394,319.511,577.124,317.661z"/>
			</g>
			<g style="opacity:0.7;">
				<path style="fill:#FFFFFF;" d="M577.124,317.661c-0.883-1.286-2.245-2.154-3.302-3.301c-1.978-2.146-2.78-5.314-2.061-8.142
					l-2.125-0.013l0-0.017l-1.421,0.009l-1.421-0.009l0,0.017l-2.125,0.013c0.719,2.828-0.083,5.996-2.061,8.142
					c-1.057,1.147-2.419,2.015-3.302,3.301c-1.27,1.85-1.346,4.249-1.271,6.492v24.071c0,1.69,1.37,3.06,3.06,3.06h5.324h3.591
					h5.324c1.69,0,3.06-1.37,3.06-3.06v-24.071C578.47,321.91,578.394,319.511,577.124,317.661z"/>
			</g>
			<g style="opacity:0.7;">
				<path style="fill:#FFFFFF;" d="M561.095,349.489c-0.822,0-1.492-0.669-1.492-1.492v-24.07c-0.08-2.4,0.059-4.241,0.995-5.605
					c0.424-0.618,1.044-1.164,1.7-1.741c0.487-0.428,0.99-0.872,1.463-1.384c1.905-2.067,2.877-4.87,2.724-7.647l2.398-0.015
					l0.743,0.013l0.318,0.002c-0.153,2.778,0.819,5.581,2.724,7.647c0.472,0.513,0.976,0.956,1.462,1.384
					c0.656,0.578,1.276,1.124,1.7,1.741c0.936,1.363,1.075,3.205,0.996,5.552l-0.001,24.123c0,0.822-0.669,1.492-1.492,1.492
					H561.095z"/>
			</g>
			<g style="opacity:0.7;">
				<path style="fill:#FFFFFF;" d="M575.821,318.322h-15.232c-0.936,1.363-1.075,3.205-0.995,5.605v24.07
					c0,0.822,0.669,1.492,1.492,1.492h14.239c0.822,0,1.492-0.669,1.492-1.492l0.001-24.123
					C576.896,321.527,576.757,319.685,575.821,318.322z"/>
			</g>
			<path style="fill:#407BFF;" d="M571.782,307.673h-7.135c-0.444,0-0.805-0.36-0.805-0.805v-0.424c0-0.444,0.36-0.804,0.805-0.804
				h7.135c0.444,0,0.805,0.36,0.805,0.804v0.424C572.587,307.313,572.227,307.673,571.782,307.673z"/>
			<path style="opacity:0.2;" d="M571.516,308.808h-6.601c0.023-0.371,0.02-0.742-0.02-1.14l6.62,0.005
				C571.496,308.073,571.494,308.453,571.516,308.808z"/>
			<path style="opacity:0.7;fill:#FFFFFF;" d="M571.782,307.673h-7.135c-0.444,0-0.805-0.36-0.805-0.805v-0.424
				c0-0.444,0.36-0.804,0.805-0.804h7.135c0.444,0,0.805,0.36,0.805,0.804v0.424C572.587,307.313,572.227,307.673,571.782,307.673z"
				/>
		</g>
		<g>
			<g>
				<path style="fill:#407BFF;" d="M608.671,317.661c-0.883-1.286-2.245-2.154-3.302-3.301c-1.978-2.146-2.78-5.314-2.061-8.142
					l-2.125-0.013l0-0.017l-1.421,0.009l-1.421-0.009l0,0.017l-2.125,0.013c0.719,2.828-0.083,5.996-2.061,8.142
					c-1.057,1.147-2.419,2.015-3.302,3.301c-1.27,1.85-1.346,4.249-1.271,6.492v24.071c0,1.69,1.37,3.06,3.06,3.06h5.324h3.591
					h5.324c1.69,0,3.06-1.37,3.06-3.06v-24.071C610.017,321.91,609.941,319.511,608.671,317.661z"/>
			</g>
			<g style="opacity:0.7;">
				<path style="fill:#FFFFFF;" d="M608.671,317.661c-0.883-1.286-2.245-2.154-3.302-3.301c-1.978-2.146-2.78-5.314-2.061-8.142
					l-2.125-0.013l0-0.017l-1.421,0.009l-1.421-0.009l0,0.017l-2.125,0.013c0.719,2.828-0.083,5.996-2.061,8.142
					c-1.057,1.147-2.419,2.015-3.302,3.301c-1.27,1.85-1.346,4.249-1.271,6.492v24.071c0,1.69,1.37,3.06,3.06,3.06h5.324h3.591
					h5.324c1.69,0,3.06-1.37,3.06-3.06v-24.071C610.017,321.91,609.941,319.511,608.671,317.661z"/>
			</g>
			<g style="opacity:0.7;">
				<path style="fill:#FFFFFF;" d="M592.642,349.489c-0.822,0-1.492-0.669-1.492-1.492v-24.07c-0.08-2.4,0.059-4.241,0.995-5.605
					c0.424-0.618,1.044-1.164,1.699-1.741c0.487-0.428,0.99-0.872,1.463-1.384c1.905-2.067,2.877-4.87,2.724-7.647l2.398-0.015
					l0.743,0.013l0.318,0.002c-0.153,2.778,0.819,5.581,2.724,7.647c0.472,0.513,0.976,0.956,1.462,1.384
					c0.656,0.578,1.276,1.124,1.7,1.741c0.936,1.363,1.075,3.205,0.996,5.552l-0.001,24.123c0,0.822-0.669,1.492-1.492,1.492
					H592.642z"/>
			</g>
			<g style="opacity:0.7;">
				<path style="fill:#FFFFFF;" d="M607.368,318.322h-15.232c-0.936,1.363-1.075,3.205-0.995,5.605v24.07
					c0,0.822,0.669,1.492,1.492,1.492h14.239c0.822,0,1.492-0.669,1.492-1.492l0.001-24.123
					C608.443,321.527,608.304,319.685,607.368,318.322z"/>
			</g>
			<path style="fill:#407BFF;" d="M603.329,307.673h-7.135c-0.444,0-0.804-0.36-0.804-0.805v-0.424c0-0.444,0.36-0.804,0.804-0.804
				h7.135c0.444,0,0.805,0.36,0.805,0.804v0.424C604.134,307.313,603.774,307.673,603.329,307.673z"/>
			<path style="opacity:0.2;" d="M603.063,308.808h-6.601c0.023-0.371,0.02-0.742-0.02-1.14l6.62,0.005
				C603.043,308.073,603.041,308.453,603.063,308.808z"/>
			<path style="opacity:0.7;fill:#FFFFFF;" d="M603.329,307.673h-7.135c-0.444,0-0.804-0.36-0.804-0.805v-0.424
				c0-0.444,0.36-0.804,0.804-0.804h7.135c0.444,0,0.805,0.36,0.805,0.804v0.424C604.134,307.313,603.774,307.673,603.329,307.673z"
				/>
		</g>
		<g>
			<g>
				<path style="fill:#407BFF;" d="M398.09,318.799c-0.852-1.24-2.166-2.078-3.185-3.184c-1.908-2.07-2.681-5.126-1.988-7.854
					l-2.05-0.013l0-0.017l-1.371,0.008l-1.371-0.008l0,0.017l-2.05,0.013c0.693,2.728-0.08,5.784-1.988,7.854
					c-1.02,1.106-2.334,1.944-3.185,3.184c-1.225,1.785-1.299,4.099-1.226,6.263v23.22c0,1.63,1.321,2.952,2.952,2.952h5.136h3.464
					h5.136c1.63,0,2.952-1.321,2.952-2.952v-23.22C399.389,322.898,399.316,320.584,398.09,318.799z"/>
			</g>
			<g style="opacity:0.7;">
				<path style="fill:#FFFFFF;" d="M398.09,318.799c-0.852-1.24-2.166-2.078-3.185-3.184c-1.908-2.07-2.681-5.126-1.988-7.854
					l-2.05-0.013l0-0.017l-1.371,0.008l-1.371-0.008l0,0.017l-2.05,0.013c0.693,2.728-0.08,5.784-1.988,7.854
					c-1.02,1.106-2.334,1.944-3.185,3.184c-1.225,1.785-1.299,4.099-1.226,6.263v23.22c0,1.63,1.321,2.952,2.952,2.952h5.136h3.464
					h5.136c1.63,0,2.952-1.321,2.952-2.952v-23.22C399.389,322.898,399.316,320.584,398.09,318.799z"/>
			</g>
			<path style="fill:#407BFF;" d="M392.938,309.164h-6.883c-0.429,0-0.776-0.348-0.776-0.776v-0.409
				c0-0.429,0.348-0.776,0.776-0.776h6.883c0.429,0,0.776,0.347,0.776,0.776v0.409C393.714,308.817,393.366,309.164,392.938,309.164
				z"/>
			<path style="opacity:0.2;" d="M392.68,310.259h-6.368c0.022-0.358,0.02-0.716-0.019-1.1l6.387,0.005
				C392.661,309.55,392.659,309.916,392.68,310.259z"/>
			<path style="opacity:0.7;fill:#FFFFFF;" d="M392.938,309.164h-6.883c-0.429,0-0.776-0.348-0.776-0.776v-0.409
				c0-0.429,0.348-0.776,0.776-0.776h6.883c0.429,0,0.776,0.347,0.776,0.776v0.409C393.714,308.817,393.366,309.164,392.938,309.164
				z"/>
		</g>
		<g>
			<rect x="459.445" y="279.403" style="fill:#407BFF;" width="88.128" height="187.385"/>
			<rect x="468.924" y="288.408" style="opacity:0.3;" width="47.185" height="29.157"/>
			<path style="opacity:0.3;" d="M521.46,298.271h-0.535c-0.56,0-1.013-0.454-1.013-1.013v-7.836c0-0.56,0.454-1.014,1.013-1.014
				h0.535c0.56,0,1.013,0.454,1.013,1.014v7.836C522.473,297.818,522.019,298.271,521.46,298.271z"/>
			<circle style="fill:#263238;" cx="521.192" cy="290.476" r="2.067"/>
			<path style="opacity:0.3;" d="M527.448,298.271h-0.535c-0.56,0-1.013-0.454-1.013-1.013v-7.836c0-0.56,0.454-1.014,1.013-1.014
				h0.535c0.56,0,1.014,0.454,1.014,1.014v7.836C528.461,297.818,528.008,298.271,527.448,298.271z"/>
			<circle style="fill:#263238;" cx="527.181" cy="296.204" r="2.067"/>
			<path style="opacity:0.3;" d="M533.436,298.271h-0.535c-0.56,0-1.013-0.454-1.013-1.013v-7.836c0-0.56,0.454-1.014,1.013-1.014
				h0.535c0.56,0,1.013,0.454,1.013,1.014v7.836C534.45,297.818,533.996,298.271,533.436,298.271z"/>
			<path style="fill:#263238;" d="M535.236,290.476c0,1.142-0.925,2.067-2.067,2.067c-1.142,0-2.067-0.926-2.067-2.067
				c0-1.142,0.926-2.067,2.067-2.067C534.311,288.408,535.236,289.334,535.236,290.476z"/>
			<path style="opacity:0.3;" d="M539.424,298.271h-0.535c-0.56,0-1.014-0.454-1.014-1.013v-7.836c0-0.56,0.454-1.014,1.014-1.014
				h0.535c0.56,0,1.013,0.454,1.013,1.014v7.836C540.438,297.818,539.984,298.271,539.424,298.271z"/>
			<circle style="fill:#263238;" cx="539.157" cy="296.204" r="2.067"/>
			<g>
				<g>
					<g>
						<path style="fill:#263238;" d="M472.776,300.759c0,2.284,0,4.569,0,6.853c0,0.483,0.75,0.483,0.75,0c0-2.284,0-4.569,0-6.853
							C473.526,300.276,472.776,300.275,472.776,300.759L472.776,300.759z"/>
					</g>
				</g>
				<g>
					<g>
						<path style="fill:#263238;" d="M475.358,299.462c0,3.004,0,6.009,0,9.013c0,0.483,0.75,0.483,0.75,0c0-3.004,0-6.009,0-9.013
							C476.108,298.979,475.358,298.979,475.358,299.462L475.358,299.462z"/>
					</g>
				</g>
				<g>
					<g>
						<path style="fill:#263238;" d="M477.94,300.759c0,2.161,0,4.322,0,6.483c0,0.483,0.75,0.483,0.75,0c0-2.161,0-4.322,0-6.483
							C478.69,300.276,477.94,300.275,477.94,300.759L477.94,300.759z"/>
					</g>
				</g>
				<g>
					<g>
						<path style="fill:#263238;" d="M480.522,298.481c0,3.332,0,6.663,0,9.995c0,0.483,0.75,0.483,0.75,0c0-3.331,0-6.663,0-9.995
							C481.272,297.998,480.522,297.997,480.522,298.481L480.522,298.481z"/>
					</g>
				</g>
				<g>
					<g>
						<path style="fill:#263238;" d="M483.104,296.4c0,4.696,0,9.392,0,14.088c0,0.483,0.75,0.483,0.75,0c0-4.696,0-9.392,0-14.088
							C483.854,295.918,483.104,295.917,483.104,296.4L483.104,296.4z"/>
					</g>
				</g>
				<g>
					<g>
						<path style="fill:#263238;" d="M485.686,298.481c0,3.332,0,6.663,0,9.995c0,0.483,0.75,0.483,0.75,0c0-3.331,0-6.663,0-9.995
							C486.436,297.998,485.686,297.997,485.686,298.481L485.686,298.481z"/>
					</g>
				</g>
				<g>
					<g>
						<path style="fill:#263238;" d="M488.268,300.388c0,2.284,0,4.569,0,6.853c0,0.483,0.75,0.483,0.75,0c0-2.284,0-4.569,0-6.853
							C489.018,299.905,488.268,299.905,488.268,300.388L488.268,300.388z"/>
					</g>
				</g>
				<g>
					<g>
						<path style="fill:#263238;" d="M490.85,302.196c0,1.311,0,2.622,0,3.934c0,0.483,0.75,0.483,0.75,0c0-1.311,0-2.622,0-3.934
							C491.6,301.714,490.85,301.713,490.85,302.196L490.85,302.196z"/>
					</g>
				</g>
				<g>
					<g>
						<path style="fill:#263238;" d="M493.433,300.018c0,2.223,0,4.445,0,6.668c0,0.483,0.75,0.483,0.75,0c0-2.223,0-4.445,0-6.668
							C494.183,299.535,493.433,299.534,493.433,300.018L493.433,300.018z"/>
					</g>
				</g>
				<g>
					<g>
						<path style="fill:#263238;" d="M496.015,298.481c0,3.332,0,6.663,0,9.995c0,0.483,0.75,0.483,0.75,0c0-3.331,0-6.663,0-9.995
							C496.765,297.998,496.015,297.997,496.015,298.481L496.015,298.481z"/>
					</g>
				</g>
				<g>
					<g>
						<path style="fill:#263238;" d="M498.597,296.064c0,4.808,0,9.617,0,14.425c0,0.483,0.75,0.483,0.75,0
							c0-4.808,0-9.617,0-14.425C499.347,295.581,498.597,295.58,498.597,296.064L498.597,296.064z"/>
					</g>
				</g>
				<g>
					<g>
						<path style="fill:#263238;" d="M501.179,298.481c0,3.332,0,6.663,0,9.995c0,0.483,0.75,0.483,0.75,0c0-3.331,0-6.663,0-9.995
							C501.929,297.998,501.179,297.997,501.179,298.481L501.179,298.481z"/>
					</g>
				</g>
				<g>
					<g>
						<path style="fill:#263238;" d="M503.761,300.666c0,2.192,0,4.384,0,6.575c0,0.483,0.75,0.483,0.75,0c0-2.192,0-4.384,0-6.575
							C504.511,300.183,503.761,300.183,503.761,300.666L503.761,300.666z"/>
					</g>
				</g>
				<g>
					<g>
						<path style="fill:#263238;" d="M506.343,301.777c0,1.111,0,2.223,0,3.334c0,0.483,0.75,0.483,0.75,0c0-1.111,0-2.223,0-3.334
							C507.093,301.295,506.343,301.294,506.343,301.777L506.343,301.777z"/>
					</g>
				</g>
				<g>
					<g>
						<path style="fill:#263238;" d="M508.925,300.388c0,1.914,0,3.828,0,5.742c0,0.483,0.75,0.483,0.75,0c0-1.914,0-3.828,0-5.742
							C509.675,299.905,508.925,299.905,508.925,300.388L508.925,300.388z"/>
					</g>
				</g>
				<g>
					<g>
						<path style="fill:#263238;" d="M511.507,298.481c0,3.332,0,6.663,0,9.995c0,0.483,0.75,0.483,0.75,0c0-3.331,0-6.663,0-9.995
							C512.258,297.998,511.507,297.997,511.507,298.481L511.507,298.481z"/>
					</g>
				</g>
			</g>
			<g>
				<g>
					<path style="fill:#263238;" d="M471.06,324.774c14.232,0,28.464,0,42.696,0c0.483,0,0.483-0.75,0-0.75
						c-14.232,0-28.464,0-42.696,0C470.577,324.024,470.576,324.774,471.06,324.774L471.06,324.774z"/>
				</g>
			</g>
			<circle style="opacity:0.3;" cx="473.151" cy="330.861" r="2.344"/>
			<path style="opacity:0.3;" d="M483.241,330.861c0,1.294-1.049,2.344-2.344,2.344c-1.294,0-2.344-1.049-2.344-2.344
				c0-1.294,1.049-2.344,2.344-2.344C482.191,328.518,483.241,329.567,483.241,330.861z"/>
			<circle style="opacity:0.3;" cx="488.643" cy="330.861" r="2.344"/>
			<circle style="opacity:0.3;" cx="496.39" cy="330.861" r="2.344"/>
			<path style="opacity:0.3;" d="M506.48,330.861c0,1.294-1.049,2.344-2.344,2.344c-1.294,0-2.343-1.049-2.343-2.344
				c0-1.294,1.049-2.344,2.343-2.344C505.43,328.518,506.48,329.567,506.48,330.861z"/>
			<circle style="opacity:0.3;" cx="511.882" cy="330.861" r="2.344"/>
			<rect x="519.911" y="304.163" style="opacity:0.3;" width="21.313" height="7.201"/>
			<rect x="519.911" y="315.337" style="opacity:0.3;" width="21.313" height="7.201"/>
			<g>
				<g>
					<path style="fill:#263238;" d="M541.224,459.563c-8.55,0-17.099,0-25.649,0c-13.618,0-27.237,0-40.856,0
						c-3.114,0-6.229,0-9.343,0c0.125,0.125,0.25,0.25,0.375,0.375c0-4.029,0-8.058,0-12.087c0-9.587,0-19.174,0-28.762
						c0-11.632,0-23.263,0-34.895c0-10.058,0-20.115,0-30.173c0-3.325,0-6.65,0-9.975c0-1.022,0-2.043,0-3.065
						c0-0.433,0.158-1.225,0-1.634c-0.02-0.052,0-0.15,0-0.208c-0.125,0.125-0.25,0.25-0.375,0.375c8.55,0,17.099,0,25.649,0
						c13.619,0,27.237,0,40.856,0c3.114,0,6.229,0,9.343,0c-0.125-0.125-0.25-0.25-0.375-0.375c0,4.029,0,8.058,0,12.087
						c0,9.587,0,19.174,0,28.761c0,11.632,0,23.263,0,34.895c0,10.058,0,20.115,0,30.173c0,3.325,0,6.65,0,9.975
						c0,1.529-0.176,3.177,0,4.699c0.008,0.067,0,0.14,0,0.208c0,0.483,0.75,0.483,0.75,0c0-4.029,0-8.058,0-12.087
						c0-9.587,0-19.174,0-28.762c0-11.632,0-23.263,0-34.895c0-10.058,0-20.115,0-30.173c0-3.325,0-6.65,0-9.975
						c0-1.529,0.176-3.177,0-4.699c-0.008-0.067,0-0.14,0-0.208c0-0.203-0.172-0.375-0.375-0.375c-8.55,0-17.099,0-25.649,0
						c-13.618,0-27.237,0-40.856,0c-3.114,0-6.229,0-9.343,0c-0.203,0-0.375,0.172-0.375,0.375c0,4.029,0,8.058,0,12.087
						c0,9.587,0,19.174,0,28.761c0,11.632,0,23.263,0,34.895c0,10.058,0,20.115,0,30.173c0,3.325,0,6.65,0,9.975
						c0,1.529-0.176,3.177,0,4.699c0.008,0.067,0,0.14,0,0.208c0,0.203,0.172,0.375,0.375,0.375c8.55,0,17.099,0,25.649,0
						c13.619,0,27.237,0,40.856,0c3.114,0,6.229,0,9.343,0C541.707,460.313,541.708,459.563,541.224,459.563z"/>
				</g>
			</g>
		</g>
		<g>
			<g>
				<g>
					<path style="fill:#263238;" d="M172.846,274.591c0,9.252,0.107,18.505,0.33,27.755c0.323,13.409,0.675,26.921,2.313,40.246
						c0.329,2.68,0.698,5.37,1.304,8.004c0.37,1.608,0.796,3.401,1.744,4.781c1.087,1.581,3.688,0.083,2.59-1.514
						c-0.145-0.211-0.263-0.433-0.383-0.658c-0.066-0.122-0.119-0.251-0.175-0.378c0.186,0.415-0.06-0.162-0.095-0.261
						c-0.272-0.77-0.496-1.552-0.689-2.345c-0.512-2.108-0.854-4.267-1.141-6.411c-0.815-6.082-1.231-12.234-1.58-18.362
						c-0.747-13.133-1.032-26.294-1.161-39.446c-0.037-3.803-0.057-7.607-0.057-11.41
						C175.846,272.661,172.846,272.658,172.846,274.591L172.846,274.591z"/>
				</g>
			</g>
			<g>
				<g>
					<path style="fill:#263238;" d="M178.923,274.873c0,8.952,0,17.904,0,26.856c0,12.862,0,25.724,0,38.586
						c0,3.718,0,7.436,0,11.154c0,1.93,3,1.934,3,0c0-8.952,0-17.904,0-26.856c0-12.862,0-25.724,0-38.586c0-3.718,0-7.436,0-11.154
						C181.923,272.943,178.923,272.94,178.923,274.873L178.923,274.873z"/>
				</g>
			</g>
			<g>
				<g>
					<path style="fill:#263238;" d="M185,272.184c0,9.442-0.126,18.886-0.389,28.324c-0.381,13.637-0.784,27.423-2.698,40.947
						c-0.375,2.647-0.81,5.3-1.487,7.889c-0.248,0.949-0.532,1.891-0.893,2.803c-0.144,0.363,0.132-0.288-0.023,0.057
						c-0.044,0.097-0.085,0.196-0.133,0.291c-0.074,0.149-0.146,0.3-0.226,0.446c-0.088,0.16-0.186,0.312-0.279,0.469
						c-0.029,0.048-0.064,0.093-0.095,0.14c-0.221,0.336,0.15-0.179-0.006,0.009c-1.229,1.472,0.882,3.605,2.121,2.121
						c2.416-2.893,2.957-7.431,3.545-11.01c1.028-6.262,1.573-12.605,2.014-18.931c0.96-13.771,1.313-27.586,1.475-41.387
						c0.048-4.056,0.073-8.112,0.073-12.168C188,270.254,185,270.25,185,272.184L185,272.184z"/>
				</g>
			</g>
			<rect x="171.348" y="274.185" style="fill:#263238;" width="18.029" height="7.311"/>
		</g>
		<g>
			<rect x="162.408" y="259.847" style="fill:#407BFF;" width="35.91" height="14.341"/>
			<path style="fill:#407BFF;" d="M205.881,265.823h-51.037c-18.231,0-33.011-14.779-33.011-33.011V105.689
				c0-18.231,14.779-33.011,33.011-33.011h51.037c18.231,0,33.011,14.779,33.011,33.011v127.124
				C238.891,251.044,224.112,265.823,205.881,265.823z"/>
			<path style="opacity:0.3;" d="M180.362,216.344L180.362,216.344c-6.205,0-11.235-5.03-11.235-11.236v-51.897
				c0-6.205,5.03-11.236,11.235-11.236l0,0c6.205,0,11.236,5.03,11.236,11.236v51.897
				C191.598,211.314,186.568,216.344,180.362,216.344z"/>
			<path style="fill:#407BFF;" d="M194.376,80.597h-28.027c-3.46,0-6.266-2.805-6.266-6.266v-3.306c0-3.46,2.805-6.266,6.266-6.266
				h28.027c3.46,0,6.266,2.805,6.266,6.266v3.306C200.642,77.791,197.836,80.597,194.376,80.597z"/>
			<path style="fill:#407BFF;" d="M239.97,111.286H120.755c-2.01,0-3.639-1.629-3.639-3.639l0,0c0-2.01,1.629-3.639,3.639-3.639
				H239.97c2.01,0,3.639,1.629,3.639,3.639l0,0C243.609,109.657,241.98,111.286,239.97,111.286z"/>
			<path style="fill:#407BFF;" d="M239.97,237.502H120.755c-2.01,0-3.639-1.629-3.639-3.639l0,0c0-2.01,1.629-3.639,3.639-3.639
				H239.97c2.01,0,3.639,1.629,3.639,3.639l0,0C243.609,235.873,241.98,237.502,239.97,237.502z"/>
			<g>
				<g>
					<path style="fill:#263238;" d="M160.22,73.195c13.428,0,26.857,0,40.286,0c0.483,0,0.483-0.75,0-0.75
						c-13.429,0-26.857,0-40.286,0C159.737,72.445,159.736,73.195,160.22,73.195L160.22,73.195z"/>
				</g>
			</g>
			<g>
				<g>
					<path style="fill:#263238;" d="M123.011,104.383c29.756,0,59.512,0,89.269,0c8.478,0,16.956,0,25.434,0
						c0.483,0,0.483-0.75,0-0.75c-29.756,0-59.512,0-89.269,0c-8.478,0-16.956,0-25.434,0
						C122.528,103.633,122.528,104.383,123.011,104.383L123.011,104.383z"/>
				</g>
			</g>
			<g>
				<g>
					<path style="fill:#263238;" d="M121.569,111.661c30.56,0,61.119,0,91.679,0c8.636,0,17.273,0,25.909,0
						c0.483,0,0.483-0.75,0-0.75c-30.559,0-61.119,0-91.679,0c-8.636,0-17.273,0-25.909,0
						C121.086,110.911,121.085,111.661,121.569,111.661L121.569,111.661z"/>
				</g>
			</g>
			<g>
				<g>
					<path style="fill:#263238;" d="M123.011,230.6c29.756,0,59.512,0,89.269,0c8.478,0,16.956,0,25.434,0
						c0.483,0,0.483-0.75,0-0.75c-29.756,0-59.512,0-89.269,0c-8.478,0-16.956,0-25.434,0
						C122.528,229.85,122.528,230.6,123.011,230.6L123.011,230.6z"/>
				</g>
			</g>
			<g>
				<g>
					<path style="fill:#263238;" d="M121.569,237.877c30.56,0,61.119,0,91.679,0c8.636,0,17.273,0,25.909,0
						c0.483,0,0.483-0.75,0-0.75c-30.559,0-61.119,0-91.679,0c-8.636,0-17.273,0-25.909,0
						C121.086,237.127,121.085,237.877,121.569,237.877L121.569,237.877z"/>
				</g>
			</g>
			<path style="fill:#FFFFFF;" d="M180.362,216.344L180.362,216.344c-6.205,0-11.235-5.03-11.235-11.236v-48.899h22.471v48.899
				C191.598,211.314,186.568,216.344,180.362,216.344z"/>
			<g>
				<g>
					<path style="fill:#263238;" d="M180.362,215.969c-4.808,0-9.158-3.286-10.458-7.92c-0.415-1.481-0.403-2.955-0.403-4.467
						c0-4.502,0-9.004,0-13.507c0-11.432,0-22.865,0-34.297c0-0.854-0.012-1.708,0-2.562c0.062-4.576,2.919-8.749,7.283-10.265
						c4.592-1.595,9.799,0.128,12.548,4.132c1.417,2.064,1.891,4.41,1.891,6.864c0,10.465,0,20.93,0,31.395
						c0,5.307,0,10.613,0,15.92c0,1.207,0.005,2.413,0,3.62c-0.015,3.458-1.478,6.709-4.247,8.837
						C185.066,215.19,182.762,215.932,180.362,215.969c-0.482,0.007-0.483,0.757,0,0.75c4.404-0.067,8.498-2.525,10.438-6.522
						c0.938-1.933,1.173-3.965,1.173-6.072c0-4.569,0-9.138,0-13.707c0-11.831,0-23.662,0-35.492c0-1.411,0.036-2.811-0.268-4.203
						c-0.927-4.25-4.299-7.736-8.527-8.779c-7.527-1.857-14.405,4.066-14.427,11.615c-0.031,10.756,0,21.513,0,32.27
						c0,5.451,0,10.901,0,16.352c0,0.971-0.012,1.942,0,2.913c0.05,4.072,2.142,7.879,5.657,9.984
						c1.79,1.072,3.868,1.641,5.954,1.641C180.845,216.719,180.846,215.969,180.362,215.969z"/>
				</g>
			</g>
			<g>
				<g>
					<path style="fill:#263238;" d="M162.522,266.289c11.894,0,23.787,0,35.681,0c0.483,0,0.483-0.75,0-0.75
						c-11.894,0-23.787,0-35.681,0C162.039,265.539,162.038,266.289,162.522,266.289L162.522,266.289z"/>
				</g>
			</g>
		</g>
	</g>
	<rect x="581.323" y="373.095" style="opacity:0.3;" width="8.363" height="94.198"/>
	<rect x="655.906" y="373.095" style="opacity:0.3;" width="8.363" height="94.198"/>
</g>
<g id="Speech_Bubble">
	<g>
		<g>
			<g>
				<g>
					<path style="fill:#407BFF;" d="M590.219,147.631c-11.099-5.888-24.869-1.664-30.756,9.434
						c-5.888,11.098-1.664,24.868,9.435,30.756c8.568,4.545,18.714,3.044,25.611-2.974l6.779,0.848l-1.827-6.984
						c0.061-0.111,0.134-0.212,0.193-0.324C605.541,167.289,601.317,153.519,590.219,147.631z"/>
				</g>
				<path style="fill:none;stroke:#407BFF;stroke-width:0.5;stroke-linecap:round;stroke-linejoin:round;stroke-miterlimit:10;" d="
					M554.519,160.673c1.624-7.216,7.112-13.44,14.067-15.955"/>
				<path style="fill:none;stroke:#407BFF;stroke-width:0.5;stroke-linecap:round;stroke-linejoin:round;stroke-miterlimit:10;" d="
					M571.816,143.678c1.03-0.461,2.155-0.707,3.283-0.716"/>
			</g>
			<g>
				<polygon style="fill:#FFFFFF;" points="579.004,177.744 568.578,169.98 571.287,166.342 578.279,171.548 587.885,160.088 
					591.361,163.002 				"/>
			</g>
		</g>
		<g style="opacity:0.4;">
			<path style="fill:#FFFFFF;" d="M590.219,147.631c-11.099-5.888-24.869-1.664-30.756,9.434
				c-5.888,11.098-1.664,24.868,9.435,30.756c8.568,4.545,18.714,3.044,25.611-2.974l6.779,0.848l-1.827-6.984
				c0.061-0.111,0.134-0.212,0.193-0.324C605.541,167.289,601.317,153.519,590.219,147.631z"/>
		</g>
	</g>
</g>
<g id="Cow">
	<g>
		<g>
			<g>
				<path style="fill:#407BFF;" d="M86.433,469.455c0,0,4.564-7.735,5.5-9.14c0.936-1.404,6.202-19.416,8.542-32.585
					c2.34-13.169,1.638-28.498,1.638-28.498l19.659,7.199c0,0-14.744,52.128-16.616,56.107c0,0-4.915-1.029-5.5,6.916H86.433z"/>
				<path style="opacity:0.6;fill:#FFFFFF;" d="M86.433,469.455c0,0,4.564-7.735,5.5-9.14c0.936-1.404,6.202-19.416,8.542-32.585
					c2.34-13.169,1.638-28.498,1.638-28.498l19.659,7.199c0,0-14.744,52.128-16.616,56.107c0,0-4.915-1.029-5.5,6.916H86.433z"/>
				<path style="fill:#263238;" d="M86.433,469.455l4.426-7.416l14.297,0.5c0,0-5.1,0.159-5.001,6.916H86.433z"/>
			</g>
			<g>
				<g>
					<path style="fill:#407BFF;" d="M295.634,314.092c3.309,7.401,5.449,15.432,6.385,23.482c0.926,7.97,0.764,16.209-1.604,23.926
						c-0.567,1.85,2.327,2.641,2.893,0.797c2.481-8.087,2.676-16.786,1.662-25.133c-1.029-8.478-3.257-16.785-6.746-24.586
						C297.438,310.819,294.852,312.343,295.634,314.092L295.634,314.092z"/>
				</g>
			</g>
			<g style="opacity:0.3;">
				<g>
					<path d="M295.634,314.092c3.309,7.401,5.449,15.432,6.385,23.482c0.926,7.97,0.764,16.209-1.604,23.926
						c-0.567,1.85,2.327,2.641,2.893,0.797c2.481-8.087,2.676-16.786,1.662-25.133c-1.029-8.478-3.257-16.785-6.746-24.586
						C297.438,310.819,294.852,312.343,295.634,314.092L295.634,314.092z"/>
				</g>
			</g>
			<path style="fill:#407BFF;" d="M239.578,397.431c0.774,1.549,15.296,19.749,15.102,25.364c-0.194,5.615-1.743,30.785-3.679,34.27
				c-1.936,3.485-4.84,10.649-4.84,10.649h14.521c0,0-1.355-4.84,2.904-7.551c0,0,8.519-32.14,9.874-38.336
				c1.355-6.196-7.164-32.334-7.164-32.334L239.578,397.431z"/>
			<path style="opacity:0.6;fill:#FFFFFF;" d="M239.578,397.431c0.774,1.549,15.296,19.749,15.102,25.364
				c-0.194,5.615-1.743,30.785-3.679,34.27c-1.936,3.485-4.84,10.649-4.84,10.649h14.521c0,0-1.355-4.84,2.904-7.551
				c0,0,8.519-32.14,9.874-38.336c1.355-6.196-7.164-32.334-7.164-32.334L239.578,397.431z"/>
			<path style="opacity:0.3;" d="M239.578,397.431c0.774,1.549,15.296,19.749,15.102,25.364c-0.194,5.615-1.743,30.785-3.679,34.27
				c-1.936,3.485-4.84,10.649-4.84,10.649h14.521c0,0-1.355-4.84,2.904-7.551c0,0,8.519-32.14,9.874-38.336
				c1.355-6.196-7.164-32.334-7.164-32.334L239.578,397.431z"/>
			<g>
				<path style="fill:#407BFF;" d="M268.178,393.67c-0.744,0.829-1.731,1.252-2.519,1.978c-1.238,1.139-0.955,0.819-0.716,2.427
					c0.267,1.793,0.375,3.341,0.141,5.185c-0.253,1.992-0.982,6.681-3.892,4.903c-1.17-0.715-1.699-1.499-2.682-4.365
					c-0.596-1.737-0.664-2.526-1.149-4.072c-2.221,0.613-3.588-0.101-3.635,2.61c-0.035,2.02,0.084,3.953-0.54,5.876
					c-0.871,2.684-2.856,3.774-4.708,1.184c-2.051-2.869-0.343-5.759-1.419-8.59c-1.449,0.569-3.185,0.308-4.691,0.659
					c-0.526,2.32-0.66,5.883-2.499,7.604c-2.308,2.161-5.381,1.28-5.473-1.934c-0.04-1.418,0.598-2.965,0.806-4.37
					c0.126-0.855,0.714-3.276,0.295-3.82c-0.285-0.369-3.301-0.927-3.981-1.301c-1.4-0.768-3.395-1.62-4.164-3.071l13.368-18.811
					l15.536-4.312c0,0,5.6,0.134,8.671,4.312C267.998,379.94,268.178,393.67,268.178,393.67z"/>
			</g>
			<path style="opacity:0.3;" d="M102.165,400.849v12.183c0,0,9.907,5.977,10.694,9.364c0.788,3.387-0.489,16.77-0.489,16.77
				c0.295-0.827,5.476-19.145,6.824-23.678c0.401-1.35,0.828-9.428,0.828-9.428L102.165,400.849z"/>
			<path style="fill:#407BFF;" d="M77.588,304.803c2.347-3.913,29.135-11.031,70.624-11.031c43.922,0,64.167-3.913,105.38-3.652
				c41.213,0.261,45.908,23.215,45.908,23.215s-0.475,0.984-1.327,2.695c0.796,4.51,1.801,13.083-0.273,20.454
				c-2.972,10.561-6.157,31.845-5.747,41.376s1.19,10.95,3.11,15.751c1.92,4.8,1.6,15.041-1.6,27.283
				c-3.2,12.242-2.88,38.641-2.88,38.641c-5.76,4.48-3.2,9.921-3.2,9.921h-14.081c0,0,2.24-7.041,4.985-13.441
				c2.745-6.4-0.184-14.081-1.465-24.642c-1.28-10.561-4.16-13.121-7.04-22.082c-2.165-6.736-8.308-25.766-11.225-34.802
				c-0.522,0.205-1.029,0.348-1.512,0.405c-13.303,1.565-14.868,18.259-31.301,23.737c-16.433,5.478-41.945,1.176-55.769,2.219
				c-13.824,1.043-24.932,5.328-38.235,7.822c-13.303,2.494-35.471-10.822-35.471-10.822s-9.293-7.635-14.341-23.207
				c-5.048-15.572-12.411-37.025-12.411-37.025L77.588,304.803z"/>
			<path style="opacity:0.6;fill:#FFFFFF;" d="M77.588,304.803c2.347-3.913,29.135-11.031,70.624-11.031
				c43.922,0,64.167-3.913,105.38-3.652c41.213,0.261,45.908,23.215,45.908,23.215s-0.475,0.984-1.327,2.695
				c0.796,4.51,1.801,13.083-0.273,20.454c-2.972,10.561-6.157,31.845-5.747,41.376s1.19,10.95,3.11,15.751
				c1.92,4.8,1.6,15.041-1.6,27.283c-3.2,12.242-2.88,38.641-2.88,38.641c-5.76,4.48-3.2,9.921-3.2,9.921h-14.081
				c0,0,2.24-7.041,4.985-13.441c2.745-6.4-0.184-14.081-1.465-24.642c-1.28-10.561-4.16-13.121-7.04-22.082
				c-2.165-6.736-8.308-25.766-11.225-34.802c-0.522,0.205-1.029,0.348-1.512,0.405c-13.303,1.565-14.868,18.259-31.301,23.737
				c-16.433,5.478-41.945,1.176-55.769,2.219c-13.824,1.043-24.932,5.328-38.235,7.822c-13.303,2.494-35.471-10.822-35.471-10.822
				s-9.293-7.635-14.341-23.207c-5.048-15.572-12.411-37.025-12.411-37.025L77.588,304.803z"/>
			<path style="opacity:0.3;" d="M77.751,361.371c0,0,8.661-0.437,15.354-10.83c6.693-10.393,8.07-29.3,8.07-29.3
				s16.041-11.191,13.968-19.307l-23.86,10.455l-15.541,44.844L77.751,361.371z"/>
			<g>
				<path style="fill:#407BFF;" d="M206.863,353.516c-4.431-5.687-6.473-13.177-5.54-20.326c0.509-3.905,1.851-7.936,0.613-11.675
					c-1.294-3.908-5.215-6.478-9.244-7.325c-3.081-0.648-6.247-0.463-9.389-0.082c-3.364-0.308-7.086,1.28-9.49,3.825
					c-3.51,3.716-5.003,8.835-6.694,13.659c-1.691,4.824-3.935,9.843-8.266,12.559c-4.385,2.75-10.557,2.91-13.555,7.129
					c-2.673,3.762-1.361,9.262,1.727,12.691c3.087,3.43,7.511,5.281,11.779,7.035c4.268,1.754,8.688,3.624,11.751,7.076
					c2.96,3.337,4.316,7.781,6.757,11.514c2.628,4.019,7.725,8.808,11.72,11.513c12.449,0.629,25.973,1.166,36.91-2.48
					c0.715-0.238,1.392-0.505,2.052-0.783c0.934-1.598,1.672-3.308,2.162-5.09c2.05-7.448,0.049-15.758-4.711-21.842
					C220.205,364.216,212.091,360.225,206.863,353.516z"/>
			</g>
			<g style="opacity:0.3;">
				<path d="M206.863,353.516c-4.431-5.687-6.473-13.177-5.54-20.326c0.509-3.905,1.851-7.936,0.613-11.675
					c-1.294-3.908-5.215-6.478-9.244-7.325c-3.081-0.648-6.247-0.463-9.389-0.082c-3.364-0.308-7.086,1.28-9.49,3.825
					c-3.51,3.716-5.003,8.835-6.694,13.659c-1.691,4.824-3.935,9.843-8.266,12.559c-4.385,2.75-10.557,2.91-13.555,7.129
					c-2.673,3.762-1.361,9.262,1.727,12.691c3.087,3.43,7.511,5.281,11.779,7.035c4.268,1.754,8.688,3.624,11.751,7.076
					c2.96,3.337,4.316,7.781,6.757,11.514c2.628,4.019,7.725,8.808,11.72,11.513c12.641,1.217,25.973,1.166,36.91-2.48
					c0.715-0.238,1.392-0.505,2.052-0.783c0.934-1.598,1.672-3.308,2.162-5.09c2.05-7.448,0.049-15.758-4.711-21.842
					C220.205,364.216,212.091,360.225,206.863,353.516z"/>
			</g>
			<g>
				<path style="fill:#407BFF;" d="M153.81,322.23c2.079-7.321,4.66-21.552-0.331-27.964c-0.012-0.015-0.025-0.029-0.037-0.044
					c-1.712-0.132-3.445-0.277-5.23-0.45c-19.989-1.938-32.267,2.37-39.923,7.931c-3.297,6.755-4.179,14.911-5.258,22.028
					c-0.994,6.553-4.94,16.274-1.457,22.61c5.154,9.374,19.695,6.962,26.07,0.961c4.113-3.872,6.795-9.889,11.755-12.681
					c2.849-1.604,6.469-1.672,9.206-3.462C151.466,329.289,152.89,325.471,153.81,322.23z"/>
			</g>
			<g>
				<path style="fill:#263238;" d="M299.516,313.303c0.191-0.384,0.292-0.587,0.335-0.673
					C299.777,312.779,299.573,313.188,299.516,313.303z"/>
			</g>
			<path style="fill:none;stroke:#263238;stroke-width:0;stroke-linecap:round;stroke-linejoin:round;" d="M299.5,313.335
				c0,0,0.007-0.013,0.016-0.032"/>
			<g>
				<path style="fill:#407BFF;" d="M299.5,313.335c0,0-4.695-22.954-45.908-23.215c-1.069-0.007-2.117-0.005-3.16-0.001
					c0.079,13.868,0.71,31.844,9.43,42.021c6.533,7.625,15.575,12.244,25.548,12.825c3.68,0.215,7.323-0.277,10.782-1.378
					c0.559-2.656,1.137-5.079,1.707-7.105C299.974,329.113,300.296,317.846,299.5,313.335z"/>
			</g>
			<g>
				<path style="fill:#407BFF;" d="M229.574,327.335c-5.893-0.931-7.95,6.08-8.575,10.562c-0.889,6.378-0.062,13.366,5.2,17.756
					c4.617,3.851,9.677-0.795,11.637-5.536c1.516-3.669,1.393-8.679,0.624-12.535c-0.683-3.431-6.134-13.735-12.189-9.16"/>
			</g>
			<g style="opacity:0.3;">
				<path d="M229.574,327.335c-5.893-0.931-7.95,6.08-8.575,10.562c-0.889,6.378-0.062,13.366,5.2,17.756
					c4.617,3.851,9.677-0.795,11.637-5.536c1.516-3.669,1.393-8.679,0.624-12.535c-0.683-3.431-6.134-13.735-12.189-9.16"/>
			</g>
			<path style="fill:#407BFF;" d="M124.505,388.195c-1.068,1.996-6.825,23.991-5.361,36.788c1.464,12.797,4.739,23.796,2.641,29.938
				c-2.098,6.142-3.914,15.584-3.914,15.584l12.97-1.148c0,0,2.548-25.747,5.795-33.99c3.248-8.242,9.238-25.997,11.587-33.503
				c2.349-7.505,9.865-13.143,5.219-20.355C148.796,374.297,130.192,377.562,124.505,388.195z"/>
			<path style="opacity:0.6;fill:#FFFFFF;" d="M124.505,388.195c-1.068,1.996-6.825,23.991-5.361,36.788
				c1.464,12.797,4.739,23.796,2.641,29.938c-2.098,6.142-3.914,15.584-3.914,15.584l12.97-1.148c0,0,2.548-25.747,5.795-33.99
				c3.248-8.242,9.238-25.997,11.587-33.503c2.349-7.505,9.865-13.143,5.219-20.355
				C148.796,374.297,130.192,377.562,124.505,388.195z"/>
			<g style="opacity:0.3;">
				<path d="M153.81,322.23c2.079-7.321,4.66-21.552-0.331-27.964c-0.012-0.015-0.025-0.029-0.037-0.044
					c-1.712-0.132-3.445-0.277-5.23-0.45c-19.989-1.938-32.267,2.37-39.923,7.931c-3.297,6.755-4.179,14.911-5.258,22.028
					c-0.994,6.553-4.94,16.274-1.457,22.61c5.154,9.374,19.695,6.962,26.07,0.961c4.113-3.872,6.795-9.889,11.755-12.681
					c2.849-1.604,6.469-1.672,9.206-3.462C151.466,329.289,152.89,325.471,153.81,322.23z"/>
			</g>
			<g>
				<g>
					<path style="fill:#263238;" d="M273.931,419.364c-1.279-2.628-2.168-5.478-3.122-8.234c-1.504-4.345-2.94-8.714-4.369-13.084
						c-2.625-8.029-5.092-16.127-7.955-24.076c-0.538-1.494-1.217-2.922-1.778-4.406c-1.633-4.318-2.323-8.914-2.875-13.474
						c-0.057-0.473-0.808-0.479-0.75,0c0.462,3.819,1.007,7.649,2.115,11.342c0.595,1.982,1.476,3.827,2.203,5.754
						c1.181,3.13,2.199,6.325,3.244,9.501c3.005,9.139,5.901,18.315,9.019,27.416c1.104,3.224,2.125,6.567,3.62,9.639
						C273.495,420.177,274.142,419.797,273.931,419.364L273.931,419.364z"/>
				</g>
			</g>
			<g>
				<g>
					<path style="fill:#263238;" d="M293.458,369.118c1.448-12.681,3.813-25.263,5.719-37.88c0.354-2.346,0.721-4.695,0.978-7.055
						c0.052-0.479-0.698-0.476-0.75,0c-0.566,5.207-1.488,10.388-2.303,15.56c-1.079,6.848-2.18,13.693-3.195,20.551
						c-0.434,2.936-0.862,5.875-1.199,8.824C292.654,369.597,293.404,369.593,293.458,369.118L293.458,369.118z"/>
				</g>
			</g>
			<path style="opacity:0.3;" d="M237.657,391.16c0.348-0.356,8.01-4.606,12.983-8.532c4.973-3.926,5.952-2.748,5.952-2.748
				l9.362,17.886l-7.627-23.124c0,0-5.458,0.535-8.464,3.217S237.657,391.16,237.657,391.16z"/>
			<polygon style="fill:#263238;" points="116.94,470.587 119.24,464.158 131.429,464 130.715,470.505 			"/>
			<g>
				<path style="fill:#407BFF;" d="M143.454,393.348c-1.964,0.488-4.275,2.029-5.567,3.517c-1.394,1.606-2.873,3.079-4.317,4.671
					c-3.583,3.948-5.898,8.428-7.925,13.277c-1.772,4.239-2.438,10.307-0.304,14.566c0.934,1.864,6.677,10.196,9.896,10.705
					c0.447-1.864,0.915-3.488,1.4-4.717c3.248-8.242,9.238-25.997,11.587-33.503C147.722,398.539,148.46,392.105,143.454,393.348z"
					/>
			</g>
			<g>
				<g>
					<path style="fill:#263238;" d="M118.9,419.664c0.235-8.857,1.589-17.635,4.031-26.152c0.133-0.465-0.59-0.663-0.723-0.199
						c-2.459,8.579-3.821,17.43-4.057,26.351C118.137,420.146,118.887,420.146,118.9,419.664L118.9,419.664z"/>
				</g>
			</g>
			<path style="fill:#263238;" d="M245.836,467.714c0,0,3.217-6.797,3.369-7.034c0.152-0.237,14.382-0.517,14.382-0.517
				s-3.509,2.38-2.492,7.551H245.836z"/>
			<path style="fill:#263238;" d="M273.037,469.455c0,0,3.008-7.306,3.183-7.773c0.176-0.466,14.562-2.148,14.562-2.148
				s-4.369,4.196-3.2,9.921H273.037z"/>
			<g style="opacity:0.3;">
				<path d="M143.454,393.348c-1.964,0.488-4.275,2.029-5.567,3.517c-1.394,1.606-2.873,3.079-4.317,4.671
					c-3.583,3.948-5.898,8.428-7.925,13.277c-1.772,4.239-2.438,10.307-0.304,14.566c0.934,1.864,6.677,10.196,9.896,10.705
					c0.447-1.864,0.915-3.488,1.4-4.717c3.248-8.242,9.238-25.997,11.587-33.503C147.722,398.539,148.46,392.105,143.454,393.348z"
					/>
			</g>
			<g style="opacity:0.3;">
				<path d="M299.5,313.335c0,0-4.695-22.954-45.908-23.215c-1.069-0.007-2.117-0.005-3.16-0.001
					c0.079,13.868,0.71,31.844,9.43,42.021c6.533,7.625,15.575,12.244,25.548,12.825c3.68,0.215,7.323-0.277,10.782-1.378
					c0.559-2.656,1.137-5.079,1.707-7.105C299.974,329.113,300.296,317.846,299.5,313.335z"/>
			</g>
			<path style="fill:#407BFF;" d="M294.43,391.529c0,0-7.915,3.209-9.366,7.561c-1.451,4.352-3.794,15.622-2.12,18.97
				c1.674,3.348,9.725,7.702,9.725,7.702s0.75-4.355,1.761-7.144c1.012-2.79,2.135-11.482,2.466-16.395
				C297.26,396.826,294.43,391.529,294.43,391.529z"/>
			<path style="opacity:0.3;" d="M294.43,391.529c0,0-7.915,3.209-9.366,7.561c-1.451,4.352-3.794,15.622-2.12,18.97
				c1.674,3.348,9.725,7.702,9.725,7.702s0.75-4.355,1.761-7.144c1.012-2.79,2.135-11.482,2.466-16.395
				C297.26,396.826,294.43,391.529,294.43,391.529z"/>
			<g>
				<path style="fill:#263238;" d="M307.819,368.865c-0.95-4.138-3.008-7.925-5.046-11.649l-0.816-0.134
					c-4.805,6.546-5.403,15.915-1.469,23.019c1.503,2.714,3.684,5.629,2.743,8.585C307.648,383.23,309.39,375.706,307.819,368.865z"
					/>
			</g>
			<g>
				<path style="fill:#263238;" d="M55.601,302.674c-0.215-0.732-5.504-4.527-4.387-11.253c1.117-6.726,5.049,0.104,8.79,2.189
					C63.745,295.694,55.601,302.674,55.601,302.674z"/>
				<path style="fill:#407BFF;" d="M53.794,300.097c-0.02,0.102-2.663-9.1-19.485-1.847c0,0,0.745,5.821,3.579,9.17
					c3.255,3.845,6.724,5.453,11.12,5.405c4.396-0.048,5.55-1.629,5.55-1.629L53.794,300.097z"/>
				<path style="opacity:0.6;fill:#FFFFFF;" d="M53.794,300.097c-0.02,0.102-2.663-9.1-19.485-1.847c0,0,0.745,5.821,3.579,9.17
					c3.255,3.845,6.724,5.453,11.12,5.405c4.396-0.048,5.55-1.629,5.55-1.629L53.794,300.097z"/>
				<path style="fill:#407BFF;" d="M89.61,294.803c0,0-8.942-5.153-16.253-5.639c-3.997-0.266-9.319,1.727-13.322,3.588
					c-3.568,1.659-6.156,5.207-6.98,9.479l-1.325,6.876c0,0-0.237,6.889,0.229,9.925c0.111,0.726,2.053,14.802,0.495,17.546
					c-1.558,2.744-2.175,4.535-1.724,11.096c0.451,6.561,1.87,9.968,8.246,11.672c6.376,1.704,10.547,0.659,16.766-2.112
					c6.409-2.856,12.325-12.886,16.743-20.605c4.418-7.719,3.141-15.706,3.141-15.706s1.19-16.168,0.684-19.301
					C95.675,297.684,89.61,294.803,89.61,294.803z"/>
				<path style="opacity:0.6;fill:#FFFFFF;" d="M89.61,294.803c0,0-8.942-5.153-16.253-5.639c-3.997-0.266-9.319,1.727-13.322,3.588
					c-3.568,1.659-6.156,5.207-6.98,9.479l-1.325,6.876c0,0-0.237,6.889,0.229,9.925c0.111,0.726,2.053,14.802,0.495,17.546
					c-1.558,2.744-2.491,5.106-2.04,11.667c0.451,6.561,1.952,9.819,8.328,11.523c6.376,1.704,10.781,0.237,16.999-2.534
					c6.409-2.856,12.325-12.886,16.743-20.605c4.418-7.719,3.141-15.706,3.141-15.706s1.19-16.168,0.684-19.301
					C95.675,297.684,89.61,294.803,89.61,294.803z"/>
				<path style="fill:#263238;" d="M78.443,320.161c0.164,2.391,1.206,4.267,2.326,4.19s1.895-2.078,1.731-4.469
					c-0.164-2.391-1.206-4.267-2.326-4.19C79.053,315.77,78.279,317.77,78.443,320.161z"/>
				<path style="fill:#263238;" d="M57.346,320.556c0.156,2.274,1.071,4.063,2.042,3.996c0.972-0.067,1.632-1.964,1.476-4.238
					c-0.156-2.274-1.071-4.063-2.042-3.996C57.85,316.385,57.189,318.282,57.346,320.556z"/>
				<g>
					<path style="fill:#407BFF;" d="M93.636,302.424c0,0,8.387-15.312,21.17-0.877c0.112,0.127,0.225,0.256,0.338,0.388
						c0,0-3.38,10.12-12.382,12.551c-9.003,2.432-10.054-2.275-10.054-2.275L93.636,302.424z"/>
					<path style="opacity:0.6;fill:#FFFFFF;" d="M93.636,302.424c0,0,8.387-15.312,21.17-0.877c0.112,0.127,0.225,0.256,0.338,0.388
						c0,0-3.38,10.12-12.382,12.551c-9.003,2.432-10.054-2.275-10.054-2.275L93.636,302.424z"/>
				</g>
				<path style="fill:none;stroke:#263238;stroke-width:2;stroke-linecap:round;stroke-linejoin:round;stroke-miterlimit:10;" d="
					M54.481,310.091c1.912-0.74,4.103-0.953,6.136-0.597"/>
				<path style="fill:none;stroke:#263238;stroke-width:2;stroke-linecap:round;stroke-linejoin:round;stroke-miterlimit:10;" d="
					M77.751,310.094c1.912-0.74,4.103-0.953,6.136-0.597"/>
				<g>
					<path style="fill:#407BFF;" d="M60.036,292.752c-0.794,0.369-1.531,0.846-2.219,1.389c-0.23,0.301-0.446,0.622-0.624,0.989
						c-1.551,3.209,0.045,5.966,1.742,7.72c1.197,1.238,2.557,2.266,3.431,3.957c1.403,2.716,1.175,6.327,0.881,9.56
						c-0.489,5.387-1.049,11.01-2.836,15.648c-0.607,1.574,0.337,3.58,1.632,3.504c1.619-0.094,3.339-0.512,3.991-1.097
						c1.17-1.051,2.011-2.668,2.782-4.291c1.594-3.357,3.013-6.933,3.813-10.848c0.913-4.461,1.159-9.67,3.643-12.652
						c1.817-2.181,4.455-2.624,6.357-4.661c1.375-1.473,2.254-3.657,3.099-5.784c0.37-0.932,0.725-1.978,0.688-3.032
						c-3.261-1.553-8.478-3.688-13.057-3.993C69.36,288.898,64.039,290.891,60.036,292.752z"/>
				</g>
				<path style="fill:#263238;" d="M70.555,340.228c-4.392-2.379-13.669-1.618-14.635-1.292c-2.985,1.007-4.691,2.637-5.564,4.539
					c-0.085,1.312-0.074,2.858,0.058,4.769c0.451,6.561,1.952,9.819,8.328,11.523c6.326,1.691,10.714,0.258,16.857-2.472
					c0.56-0.708,0.994-1.439,1.224-2.178C78.346,350.225,74.947,342.607,70.555,340.228z"/>
				<path d="M57.635,347.29c0.889,1.171,0.984,2.625,0.211,3.249c-0.773,0.624-2.121,0.181-3.01-0.99
					c-0.889-1.171-0.984-2.625-0.211-3.249C55.398,345.676,56.746,346.12,57.635,347.29z"/>
				<path d="M69.159,350.006c-0.951,1.11-2.319,1.463-3.058,0.79c-0.738-0.674-0.566-2.12,0.385-3.229
					c0.951-1.11,2.319-1.463,3.058-0.79C70.282,347.451,70.109,348.897,69.159,350.006z"/>
				<path style="fill:#263238;" d="M93.315,302.315c0.233-0.724,5.615-4.329,4.666-11.092c-0.949-6.762-5.049-0.075-8.841,1.876
					C85.349,295.049,93.315,302.315,93.315,302.315z"/>
			</g>
			<g style="opacity:0.3;">
				<path d="M60.036,292.752c-0.794,0.369-1.531,0.846-2.219,1.389c-0.23,0.301-0.446,0.622-0.624,0.989
					c-1.551,3.209,0.045,5.966,1.742,7.72c1.197,1.238,2.557,2.266,3.431,3.957c1.403,2.716,1.175,6.327,0.881,9.56
					c-0.489,5.387-1.049,11.01-2.836,15.648c-0.607,1.574,0.337,3.58,1.632,3.504c1.619-0.094,3.339-0.512,3.991-1.097
					c1.17-1.051,2.011-2.668,2.782-4.291c1.594-3.357,3.013-6.933,3.813-10.848c0.913-4.461,1.159-9.67,3.643-12.652
					c1.817-2.181,4.455-2.624,6.357-4.661c1.375-1.473,2.254-3.657,3.099-5.784c0.37-0.932,0.725-1.978,0.688-3.032
					c-3.261-1.553-8.478-3.688-13.057-3.993C69.36,288.898,64.039,290.891,60.036,292.752z"/>
			</g>
			<path style="fill:#407BFF;" d="M79.415,363.355c-0.396,0.124-0.699,0.226-0.904,0.297c1.249,3.754,2.489,7.519,3.615,10.991
				c5.048,15.572,14.341,23.207,14.341,23.207s5.434,3.262,12.533,6.255c3.845-3.67,6.016-13.621,0.66-30.795
				C104.48,356.703,84.535,361.753,79.415,363.355z"/>
			<path style="opacity:0.3;" d="M79.415,363.355c-0.396,0.124-0.699,0.226-0.904,0.297c1.249,3.754,2.489,7.519,3.615,10.991
				c5.048,15.572,14.341,23.207,14.341,23.207s5.434,3.262,12.533,6.255c3.845-3.67,6.016-13.621,0.66-30.795
				C104.48,356.703,84.535,361.753,79.415,363.355z"/>
			<path style="opacity:0.3;" d="M93.581,310.974c0,0,6.449-11.971,20.188-9.04C113.768,301.934,107.283,319.652,93.581,310.974z"/>
			<path style="opacity:0.3;" d="M51.242,311.347c0,0-4.188-11.396-15.67-11.9C35.572,299.447,38.915,314.734,51.242,311.347z"/>
			<g>
				<g>
					<path style="fill:#263238;" d="M93.823,311.432c3.841-7.527,12.462-11.322,20.615-9.056c0.466,0.129,0.665-0.594,0.199-0.723
						c-8.46-2.351-17.471,1.58-21.462,9.401C92.956,311.483,93.603,311.863,93.823,311.432L93.823,311.432z"/>
				</g>
			</g>
			<g>
				<g>
					<path style="fill:#263238;" d="M51.947,313.714c-0.234-6.072,0.844-12.106,3.158-17.725c0.184-0.446-0.542-0.64-0.723-0.199
						c-2.337,5.674-3.421,11.792-3.184,17.924C51.216,314.195,51.966,314.197,51.947,313.714L51.947,313.714z"/>
				</g>
			</g>
			<path style="fill:#407BFF;" d="M194.406,298.035c2.197,10.571,18.64,15.38,28.199,15.736
				c14.357,0.534,19.984-12.811,12.165-23.156c-0.082-0.108-0.171-0.206-0.254-0.312c-14.749,0.377-27.171,1.241-40.455,2.013
				C193.879,294.048,193.971,295.943,194.406,298.035z"/>
			<path style="opacity:0.3;" d="M194.406,298.035c2.197,10.571,18.64,15.38,28.199,15.736
				c14.357,0.534,19.984-12.811,12.165-23.156c-0.082-0.108-0.171-0.206-0.254-0.312c-14.749,0.377-27.171,1.241-40.455,2.013
				C193.879,294.048,193.971,295.943,194.406,298.035z"/>
			<path style="fill:#407BFF;" d="M97.829,440.083c0,0,4.775,2.04,4.336,8.695c-0.439,6.655-9.57,9.931-9.57,9.931L97.829,440.083z"
				/>
			<path style="opacity:0.3;" d="M97.829,440.083c0,0,4.775,2.04,4.336,8.695c-0.439,6.655-9.57,9.931-9.57,9.931L97.829,440.083z"
				/>
		</g>
		<path style="fill:#263238;" d="M237.531,411.017l-1.467-0.365c-1.536-0.382-2.471-1.937-2.089-3.473l0.848-3.409l7.03,1.748
			l-0.848,3.409C240.621,410.464,239.067,411.399,237.531,411.017z"/>
		<path style="fill:#263238;" d="M251.476,411.935h-1.512c-1.583,0-2.866-1.283-2.866-2.866v-3.513h7.244v3.513
			C254.341,410.651,253.058,411.935,251.476,411.935z"/>
		<path style="fill:#263238;" d="M263.216,410.52l-1.506,0.134c-1.577,0.141-2.969-1.023-3.109-2.6l-0.312-3.499l7.215-0.644
			l0.312,3.499C265.956,408.987,264.793,410.379,263.216,410.52z"/>
		<g>
			<g>
				<path style="fill:#263238;" d="M214.467,401.823c0.152,3.038,0.742,6.084,1.582,9.004c0.849,2.949,2.097,5.756,4.198,8.036
					c4.313,4.681,12.074,5.654,16.347,0.377c2.51-3.1,3.193-6.999,3.727-10.844c0.112-0.809-0.197-1.601-1.048-1.845
					c-0.7-0.201-1.734,0.246-1.845,1.048c-0.488,3.514-0.962,7.505-3.537,10.188c-2.353,2.451-6.033,2.635-8.93,1.031
					c-2.788-1.544-4.571-4.377-5.567-7.329c-1.044-3.096-1.765-6.398-1.928-9.665C217.371,399.901,214.37,399.89,214.467,401.823
					L214.467,401.823z"/>
			</g>
		</g>
		<g>
			<g>
				<path style="fill:#263238;" d="M229.445,423.518c4.717,2.757,10.955,2.783,15.578-0.222c4.435-2.883,7.107-8.135,6.791-13.419
					c-0.115-1.919-3.115-1.932-3,0c0.252,4.217-1.721,8.501-5.305,10.829c-3.749,2.436-8.712,2.465-12.55,0.222
					C229.289,419.951,227.777,422.543,229.445,423.518L229.445,423.518z"/>
			</g>
		</g>
		<g>
			<g>
				<path style="fill:#263238;" d="M241.011,424.418c4.925,3.819,12.161,4.406,17.405,0.804c5.031-3.455,7.449-9.939,5.985-15.85
					c-0.464-1.873-3.358-1.08-2.893,0.798c1.124,4.538-0.708,9.787-4.607,12.462c-4.039,2.772-9.871,2.688-13.77-0.335
					c-0.645-0.5-1.491-0.617-2.121,0C240.488,422.809,240.372,423.922,241.011,424.418L241.011,424.418z"/>
			</g>
		</g>
	</g>
</g>
<g id="Box">
	<g>
		<g>
			<g>
				<path style="fill:#407BFF;" d="M388.188,414.643c-1.039-1.513-2.642-2.535-3.886-3.885c-2.328-2.525-3.271-6.254-2.425-9.582
					l-2.501-0.015l0-0.02l-1.673,0.01l-1.673-0.01l0,0.02l-2.501,0.015c0.846,3.328-0.098,7.057-2.425,9.582
					c-1.244,1.35-2.847,2.372-3.886,3.885c-1.495,2.178-1.584,5.001-1.495,7.641v28.328c0,1.989,1.612,3.601,3.601,3.601h6.266
					h4.226h6.266c1.989,0,3.601-1.612,3.601-3.601v-28.328C389.772,419.644,389.683,416.821,388.188,414.643z"/>
			</g>
			<g style="opacity:0.7;">
				<path style="fill:#FFFFFF;" d="M388.188,414.643c-1.039-1.513-2.642-2.535-3.886-3.885c-2.328-2.525-3.271-6.254-2.425-9.582
					l-2.501-0.015l0-0.02l-1.673,0.01l-1.673-0.01l0,0.02l-2.501,0.015c0.846,3.328-0.098,7.057-2.425,9.582
					c-1.244,1.35-2.847,2.372-3.886,3.885c-1.495,2.178-1.584,5.001-1.495,7.641v28.328c0,1.989,1.612,3.601,3.601,3.601h6.266
					h4.226h6.266c1.989,0,3.601-1.612,3.601-3.601v-28.328C389.772,419.644,389.683,416.821,388.188,414.643z"/>
			</g>
			<g style="opacity:0.7;">
				<path style="fill:#FFFFFF;" d="M369.324,452.101c-0.968,0-1.755-0.788-1.755-1.755v-28.328c-0.094-2.824,0.07-4.992,1.171-6.596
					c0.499-0.727,1.228-1.369,2-2.049c0.573-0.504,1.165-1.026,1.721-1.629c2.242-2.432,3.386-5.731,3.206-9l2.822-0.018
					l0.875,0.015l0.375,0.002c-0.18,3.269,0.964,6.568,3.205,9c0.556,0.603,1.148,1.125,1.721,1.629c0.772,0.68,1.501,1.323,2,2.049
					c1.102,1.604,1.265,3.772,1.172,6.534l-0.001,28.39c0,0.968-0.788,1.755-1.755,1.755H369.324z"/>
			</g>
			<g style="opacity:0.7;">
				<path style="fill:#FFFFFF;" d="M386.654,415.422h-17.926c-1.102,1.604-1.265,3.772-1.172,6.596v28.328
					c0,0.968,0.788,1.755,1.755,1.755h16.758c0.968,0,1.755-0.788,1.755-1.755l0.001-28.39
					C387.92,419.194,387.756,417.026,386.654,415.422z"/>
			</g>
			<path style="fill:#407BFF;" d="M382.044,402.889h-8.682c-0.444,0-0.805-0.36-0.805-0.805v-0.784c0-0.444,0.36-0.805,0.805-0.805
				h8.682c0.444,0,0.805,0.36,0.805,0.805v0.784C382.848,402.529,382.488,402.889,382.044,402.889z"/>
			<path style="opacity:0.2;" d="M381.588,404.225h-7.768c0.027-0.436,0.024-0.873-0.023-1.341l7.792,0.006
				C381.564,403.36,381.562,403.807,381.588,404.225z"/>
			<path style="opacity:0.7;fill:#FFFFFF;" d="M382.044,402.889h-8.682c-0.444,0-0.805-0.36-0.805-0.805v-0.784
				c0-0.444,0.36-0.805,0.805-0.805h8.682c0.444,0,0.805,0.36,0.805,0.805v0.784C382.848,402.529,382.488,402.889,382.044,402.889z"
				/>
		</g>
		<g>
			<g>
				<path style="fill:#407BFF;" d="M416.066,414.009c-1.039-1.513-2.642-2.535-3.886-3.885c-2.328-2.525-3.271-6.254-2.425-9.582
					l-2.501-0.015l0-0.021l-1.673,0.01l-1.673-0.01l0,0.021l-2.501,0.015c0.846,3.328-0.098,7.057-2.425,9.582
					c-1.244,1.35-2.847,2.372-3.886,3.885c-1.495,2.178-1.584,5.001-1.495,7.641v28.328c0,1.989,1.612,3.601,3.601,3.601h6.266
					h4.226h6.266c1.989,0,3.601-1.612,3.601-3.601v-28.328C417.65,419.009,417.561,416.186,416.066,414.009z"/>
			</g>
			<g style="opacity:0.7;">
				<path style="fill:#FFFFFF;" d="M416.066,414.009c-1.039-1.513-2.642-2.535-3.886-3.885c-2.328-2.525-3.271-6.254-2.425-9.582
					l-2.501-0.015l0-0.021l-1.673,0.01l-1.673-0.01l0,0.021l-2.501,0.015c0.846,3.328-0.098,7.057-2.425,9.582
					c-1.244,1.35-2.847,2.372-3.886,3.885c-1.495,2.178-1.584,5.001-1.495,7.641v28.328c0,1.989,1.612,3.601,3.601,3.601h6.266
					h4.226h6.266c1.989,0,3.601-1.612,3.601-3.601v-28.328C417.65,419.009,417.561,416.186,416.066,414.009z"/>
			</g>
			<g style="opacity:0.7;">
				<path style="fill:#FFFFFF;" d="M397.202,451.467c-0.968,0-1.756-0.788-1.756-1.756v-28.328c-0.094-2.824,0.07-4.992,1.172-6.596
					c0.499-0.727,1.228-1.369,2-2.049c0.573-0.504,1.165-1.026,1.721-1.629c2.242-2.432,3.386-5.731,3.206-9l2.822-0.018
					l0.875,0.015l0.374,0.002c-0.18,3.269,0.964,6.568,3.205,9c0.556,0.603,1.149,1.125,1.721,1.629c0.772,0.68,1.501,1.323,2,2.049
					c1.102,1.604,1.265,3.772,1.172,6.534l-0.001,28.39c0,0.968-0.788,1.756-1.756,1.756H397.202z"/>
			</g>
			<g style="opacity:0.7;">
				<path style="fill:#FFFFFF;" d="M414.533,414.787h-17.926c-1.102,1.604-1.265,3.772-1.171,6.596v28.328
					c0,0.968,0.788,1.756,1.755,1.756h16.758c0.968,0,1.755-0.788,1.755-1.756l0.001-28.39
					C415.798,418.559,415.634,416.391,414.533,414.787z"/>
			</g>
			<path style="fill:#407BFF;" d="M409.922,402.255h-8.682c-0.444,0-0.805-0.36-0.805-0.805v-0.784c0-0.444,0.36-0.805,0.805-0.805
				h8.682c0.444,0,0.805,0.36,0.805,0.805v0.784C410.727,401.895,410.366,402.255,409.922,402.255z"/>
			<path style="opacity:0.2;" d="M409.466,403.59h-7.768c0.027-0.436,0.024-0.873-0.023-1.341l7.792,0.006
				C409.442,402.725,409.44,403.172,409.466,403.59z"/>
			<path style="opacity:0.7;fill:#FFFFFF;" d="M409.922,402.255h-8.682c-0.444,0-0.805-0.36-0.805-0.805v-0.784
				c0-0.444,0.36-0.805,0.805-0.805h8.682c0.444,0,0.805,0.36,0.805,0.805v0.784C410.727,401.895,410.366,402.255,409.922,402.255z"
				/>
		</g>
		<g>
			<g>
				<path style="fill:#407BFF;" d="M443.944,413.686c-1.039-1.513-2.642-2.535-3.886-3.885c-2.328-2.525-3.271-6.254-2.425-9.582
					l-2.501-0.015l0-0.02l-1.673,0.01l-1.673-0.01l0,0.02l-2.501,0.015c0.846,3.328-0.098,7.057-2.425,9.582
					c-1.244,1.35-2.847,2.372-3.886,3.885c-1.495,2.178-1.584,5.001-1.495,7.641v28.328c0,1.989,1.612,3.601,3.601,3.601h6.266
					h4.226h6.266c1.989,0,3.601-1.612,3.601-3.601v-28.328C445.528,418.687,445.439,415.864,443.944,413.686z"/>
			</g>
			<g style="opacity:0.7;">
				<path style="fill:#FFFFFF;" d="M443.944,413.686c-1.039-1.513-2.642-2.535-3.886-3.885c-2.328-2.525-3.271-6.254-2.425-9.582
					l-2.501-0.015l0-0.02l-1.673,0.01l-1.673-0.01l0,0.02l-2.501,0.015c0.846,3.328-0.098,7.057-2.425,9.582
					c-1.244,1.35-2.847,2.372-3.886,3.885c-1.495,2.178-1.584,5.001-1.495,7.641v28.328c0,1.989,1.612,3.601,3.601,3.601h6.266
					h4.226h6.266c1.989,0,3.601-1.612,3.601-3.601v-28.328C445.528,418.687,445.439,415.864,443.944,413.686z"/>
			</g>
			<g style="opacity:0.7;">
				<path style="fill:#FFFFFF;" d="M425.08,451.144c-0.968,0-1.755-0.788-1.755-1.755v-28.328c-0.094-2.824,0.07-4.992,1.172-6.596
					c0.499-0.727,1.228-1.369,2-2.049c0.573-0.504,1.165-1.026,1.721-1.629c2.242-2.432,3.386-5.731,3.206-9l2.822-0.018
					l0.875,0.015l0.374,0.002c-0.18,3.27,0.964,6.568,3.206,9c0.556,0.603,1.149,1.125,1.721,1.629c0.772,0.68,1.501,1.323,2,2.049
					c1.102,1.604,1.265,3.772,1.172,6.534l-0.001,28.39c0,0.968-0.788,1.755-1.755,1.755H425.08z"/>
			</g>
			<g style="opacity:0.7;">
				<path style="fill:#FFFFFF;" d="M442.411,414.465h-17.926c-1.102,1.604-1.265,3.772-1.171,6.596v28.328
					c0,0.968,0.788,1.755,1.755,1.755h16.758c0.968,0,1.755-0.788,1.755-1.755l0.001-28.39
					C443.676,418.237,443.513,416.069,442.411,414.465z"/>
			</g>
			<path style="fill:#407BFF;" d="M437.8,401.932h-8.682c-0.444,0-0.805-0.36-0.805-0.805v-0.784c0-0.444,0.36-0.805,0.805-0.805
				h8.682c0.444,0,0.805,0.36,0.805,0.805v0.784C438.605,401.572,438.245,401.932,437.8,401.932z"/>
			<path style="opacity:0.2;" d="M437.344,403.268h-7.768c0.027-0.436,0.024-0.873-0.023-1.341l7.792,0.006
				C437.32,402.403,437.318,402.85,437.344,403.268z"/>
			<path style="opacity:0.7;fill:#FFFFFF;" d="M437.8,401.932h-8.682c-0.444,0-0.805-0.36-0.805-0.805v-0.784
				c0-0.444,0.36-0.805,0.805-0.805h8.682c0.444,0,0.805,0.36,0.805,0.805v0.784C438.605,401.572,438.245,401.932,437.8,401.932z"/>
		</g>
		<g>
			<g>
				<path style="fill:#407BFF;" d="M428.45,413.686c-1.039-1.513-2.642-2.535-3.886-3.885c-2.327-2.525-3.271-6.254-2.425-9.582
					l-2.501-0.015l0-0.02l-1.673,0.01l-1.673-0.01l0,0.02l-2.501,0.015c0.846,3.328-0.098,7.057-2.425,9.582
					c-1.244,1.35-2.847,2.372-3.886,3.885c-1.495,2.178-1.584,5.001-1.495,7.641v28.328c0,1.989,1.612,3.601,3.601,3.601h6.266
					h4.226h6.266c1.989,0,3.601-1.612,3.601-3.601v-28.328C430.034,418.687,429.945,415.864,428.45,413.686z"/>
			</g>
			<g style="opacity:0.7;">
				<path style="fill:#FFFFFF;" d="M428.45,413.686c-1.039-1.513-2.642-2.535-3.886-3.885c-2.327-2.525-3.271-6.254-2.425-9.582
					l-2.501-0.015l0-0.02l-1.673,0.01l-1.673-0.01l0,0.02l-2.501,0.015c0.846,3.328-0.098,7.057-2.425,9.582
					c-1.244,1.35-2.847,2.372-3.886,3.885c-1.495,2.178-1.584,5.001-1.495,7.641v28.328c0,1.989,1.612,3.601,3.601,3.601h6.266
					h4.226h6.266c1.989,0,3.601-1.612,3.601-3.601v-28.328C430.034,418.687,429.945,415.864,428.45,413.686z"/>
			</g>
			<g style="opacity:0.7;">
				<path style="fill:#FFFFFF;" d="M409.586,451.144c-0.968,0-1.755-0.788-1.755-1.755v-28.328c-0.094-2.824,0.07-4.992,1.172-6.596
					c0.499-0.727,1.228-1.369,2-2.049c0.573-0.504,1.165-1.026,1.721-1.629c2.242-2.432,3.386-5.731,3.206-9l2.822-0.018
					l0.875,0.015l0.375,0.002c-0.18,3.27,0.964,6.568,3.206,9c0.556,0.603,1.148,1.125,1.721,1.629c0.772,0.68,1.501,1.323,2,2.049
					c1.102,1.604,1.265,3.772,1.172,6.534l-0.001,28.39c0,0.968-0.788,1.755-1.755,1.755H409.586z"/>
			</g>
			<g style="opacity:0.7;">
				<path style="fill:#FFFFFF;" d="M426.917,414.465h-17.926c-1.102,1.604-1.265,3.772-1.172,6.596v28.328
					c0,0.968,0.788,1.755,1.756,1.755h16.758c0.968,0,1.756-0.788,1.756-1.755l0.001-28.39
					C428.182,418.237,428.018,416.069,426.917,414.465z"/>
			</g>
			<path style="fill:#407BFF;" d="M422.306,401.932h-8.682c-0.444,0-0.805-0.36-0.805-0.805v-0.784c0-0.444,0.36-0.805,0.805-0.805
				h8.682c0.444,0,0.805,0.36,0.805,0.805v0.784C423.11,401.572,422.75,401.932,422.306,401.932z"/>
			<path style="opacity:0.2;" d="M421.85,403.268h-7.768c0.027-0.436,0.024-0.873-0.023-1.341l7.792,0.006
				C421.826,402.403,421.824,402.85,421.85,403.268z"/>
			<path style="opacity:0.7;fill:#FFFFFF;" d="M422.306,401.932h-8.682c-0.444,0-0.805-0.36-0.805-0.805v-0.784
				c0-0.444,0.36-0.805,0.805-0.805h8.682c0.444,0,0.805,0.36,0.805,0.805v0.784C423.11,401.572,422.75,401.932,422.306,401.932z"/>
		</g>
		<g>
			<g>
				<path style="fill:#407BFF;" d="M402.664,413.686c-1.039-1.513-2.642-2.535-3.886-3.885c-2.327-2.525-3.271-6.254-2.425-9.582
					l-2.501-0.015l0-0.02l-1.673,0.01l-1.673-0.01l0,0.02l-2.501,0.015c0.846,3.328-0.098,7.057-2.425,9.582
					c-1.244,1.35-2.847,2.372-3.886,3.885c-1.495,2.178-1.584,5.001-1.495,7.641v28.328c0,1.989,1.612,3.601,3.601,3.601h6.266
					h4.226h6.266c1.989,0,3.601-1.612,3.601-3.601v-28.328C404.248,418.687,404.159,415.864,402.664,413.686z"/>
			</g>
			<g style="opacity:0.7;">
				<path style="fill:#FFFFFF;" d="M402.664,413.686c-1.039-1.513-2.642-2.535-3.886-3.885c-2.327-2.525-3.271-6.254-2.425-9.582
					l-2.501-0.015l0-0.02l-1.673,0.01l-1.673-0.01l0,0.02l-2.501,0.015c0.846,3.328-0.098,7.057-2.425,9.582
					c-1.244,1.35-2.847,2.372-3.886,3.885c-1.495,2.178-1.584,5.001-1.495,7.641v28.328c0,1.989,1.612,3.601,3.601,3.601h6.266
					h4.226h6.266c1.989,0,3.601-1.612,3.601-3.601v-28.328C404.248,418.687,404.159,415.864,402.664,413.686z"/>
			</g>
			<g style="opacity:0.7;">
				<path style="fill:#FFFFFF;" d="M383.8,451.144c-0.968,0-1.755-0.788-1.755-1.755v-28.328c-0.094-2.824,0.07-4.992,1.171-6.596
					c0.499-0.727,1.228-1.369,2-2.049c0.573-0.504,1.165-1.026,1.721-1.629c2.242-2.432,3.386-5.731,3.206-9l2.822-0.018
					l0.875,0.015l0.374,0.002c-0.18,3.27,0.964,6.568,3.206,9c0.556,0.603,1.148,1.125,1.721,1.629c0.772,0.68,1.501,1.323,2,2.049
					c1.102,1.604,1.265,3.772,1.172,6.534l-0.001,28.39c0,0.968-0.788,1.755-1.755,1.755H383.8z"/>
			</g>
			<g style="opacity:0.7;">
				<path style="fill:#FFFFFF;" d="M401.131,414.465h-17.926c-1.102,1.604-1.265,3.772-1.172,6.596v28.328
					c0,0.968,0.788,1.755,1.755,1.755h16.758c0.968,0,1.755-0.788,1.755-1.755l0.001-28.39
					C402.396,418.237,402.232,416.069,401.131,414.465z"/>
			</g>
			<path style="fill:#407BFF;" d="M396.52,401.932h-8.682c-0.444,0-0.805-0.36-0.805-0.805v-0.784c0-0.444,0.36-0.805,0.805-0.805
				h8.682c0.444,0,0.805,0.36,0.805,0.805v0.784C397.324,401.572,396.964,401.932,396.52,401.932z"/>
			<path style="opacity:0.2;" d="M396.064,403.268h-7.768c0.027-0.436,0.024-0.873-0.023-1.341l7.792,0.006
				C396.04,402.403,396.038,402.85,396.064,403.268z"/>
			<path style="opacity:0.7;fill:#FFFFFF;" d="M396.52,401.932h-8.682c-0.444,0-0.805-0.36-0.805-0.805v-0.784
				c0-0.444,0.36-0.805,0.805-0.805h8.682c0.444,0,0.805,0.36,0.805,0.805v0.784C397.324,401.572,396.964,401.932,396.52,401.932z"
				/>
		</g>
		<path style="fill:#263238;" d="M357.729,418.378v49.133h95.626v-49.133H357.729z M392.096,436.881h-17.42
			c-2.631,0-4.763-2.133-4.763-4.763c0-2.631,2.133-4.763,4.763-4.763h17.42c2.631,0,4.763,2.133,4.763,4.763
			C396.859,434.749,394.726,436.881,392.096,436.881z"/>
		<rect x="412.538" y="418.378" style="opacity:0.3;" width="40.817" height="49.132"/>
	</g>
</g>
<g id="Character">
	<g>
		<g id="freepik--Character--inject-34">
			<path style="fill:#407BFF;" d="M589.527,258.162l-6.597-35.198c-0.023-0.082-0.032-0.166-0.028-0.251
				c0.021-0.438,0.394-0.776,0.832-0.755h25.423c0.576,0.023,1.059,0.44,1.167,1.006l6.597,35.198
				c0.025,0.086,0.036,0.175,0.031,0.265c-0.023,0.433-0.393,0.764-0.826,0.741h-25.433
				C590.118,259.145,589.634,258.728,589.527,258.162z"/>
			<path style="fill:#FFFFFF;" d="M590.87,256.029l-5.982-31.942c-0.017-0.067-0.024-0.137-0.021-0.206
				c0.017-0.395,0.352-0.702,0.747-0.684h23.037c0.517,0.019,0.955,0.385,1.065,0.89l5.972,31.942
				c0.017,0.067,0.024,0.137,0.021,0.206c-0.017,0.395-0.352,0.702-0.747,0.684h-23.037
				C591.409,256.903,590.973,256.535,590.87,256.029z"/>
			<path style="fill:#FDBBB5;" d="M655.187,220.067c0.221,0.412,0.332,0.633,0.483,0.925l0.392,0.825
				c0.251,0.543,0.463,1.076,0.684,1.609c0.422,1.076,0.825,2.152,1.167,3.228c0.703,2.134,1.27,4.311,1.7,6.517
				c0.864,4.339,1.305,8.751,1.317,13.174v1.82c-0.004,1.032-0.198,2.055-0.573,3.017c-0.515,1.245-1.404,2.299-2.544,3.017
				c-0.965,0.581-2.054,0.926-3.178,1.006c-1.487,0.103-2.981-0.071-4.405-0.513c-1.157-0.345-2.289-0.769-3.389-1.267
				c-3.991-1.877-7.733-4.242-11.143-7.04l2.434-3.791c3.612,1.707,7.335,3.168,11.143,4.375c0.853,0.257,1.724,0.451,2.605,0.583
				c0.602,0.111,1.219,0.111,1.82,0c0.111-0.09,0.03-0.141-0.231,0c-0.271,0.149-0.495,0.372-0.644,0.644
				c-0.091,0.161-0.091,0.101-0.091-0.09l-0.111-1.408c-0.313-3.923-0.925-7.816-1.83-11.646c-0.432-1.911-0.986-3.771-1.579-5.591
				c-0.292-0.915-0.613-1.81-0.955-2.685l-0.533-1.267l-0.271-0.613l-0.221-0.473L655.187,220.067z"/>
			<path style="fill:#FDBBB5;" d="M629.884,199.029c1.026,4.093,1.177,8.458-4.696,9.856c0,0-5.632,5.35,5.149,5.35
				c9.795,0,11.233-5.35,11.233-5.35c-3.691-3.51-1.338-15.015-0.332-20.294L629.884,199.029z"/>
			<path style="fill:#263238;" d="M622.03,212.122c0,0,1.398-5.119,5.773-6.245c4.375-1.126,17.589-1.689,17.237,0.07
				c-0.352,1.76-1.297,4.777-1.297,4.777L622.03,212.122z"/>
			<path style="fill:#D7504D;" d="M618.701,192.351c-0.818,0.4-1.771,0.419-2.605,0.05c0.753-1.596,1.284-3.288,1.579-5.028
				L618.701,192.351z"/>
			<path style="fill:#263238;" d="M618.802,181.872c-0.738-0.777-1.805-1.151-2.866-1.006l0,0c-0.228,0.05-0.453-0.094-0.503-0.322
				c0-0.003-0.001-0.005-0.002-0.008c-0.045-0.223,0.1-0.441,0.323-0.485c1.341-0.211,2.7,0.248,3.641,1.227
				c0.003,0.003,0.007,0.007,0.01,0.01c0.158,0.164,0.154,0.425-0.01,0.583c-0.043,0.048-0.099,0.083-0.161,0.1
				C619.083,182.026,618.914,181.987,618.802,181.872z"/>
			<path style="fill:#263238;" d="M616.962,184.939c-0.463,0.09-0.724,0.734-0.573,1.438c0.151,0.704,0.634,1.187,1.096,1.096
				s0.714-0.734,0.563-1.438C617.907,185.332,617.424,184.849,616.962,184.939z"/>
			<path style="fill:#263238;" d="M615.383,184.768l1.79,0.131C616.519,185.905,615.383,184.768,615.383,184.768z"/>
			<polygon style="fill:#FDBBB5;" points="683.657,444.29 674.767,444.29 677.603,464.866 686.483,464.866 			"/>
			<path style="fill:#263238;" d="M674.607,459.315c-2.373,1.971-3.45,4.033-10.419,5.531c-1.549,0.332-1.348,4.023,2.383,4.023
				c3.731,0,7.673-0.282,10.368-0.282c4.395,0,6.074,0.211,9.554,0.272c0.05,0,0.099-0.003,0.149-0.008
				c0.79-0.083,1.363-0.791,1.279-1.581l-1.136-7.895c-0.055-0.351-0.359-0.608-0.714-0.603h-9.986
				C675.544,458.775,675.021,458.967,674.607,459.315z"/>
			<polygon style="opacity:0.2;enable-background:new    ;" points="685.126,454.9 676.236,454.9 674.767,444.29 683.657,444.29 			
				"/>
			<path style="fill:#263238;" d="M642.335,218.156c-2.172,4.405,5.3,17.629,5.3,17.629l11.414-10.057
				c0,0-2.705-13.597-6.305-14.743C648.489,209.639,644.607,213.601,642.335,218.156z"/>
			<path style="fill:#263238;" d="M615.855,210.091c2.745-0.453,6.145-0.955,9.343-1.247c5.454-0.388,10.928-0.388,16.382,0
				c3.158,0.161,6.285,0.523,8.88,0.895c0.17,0.024,0.339,0.056,0.507,0.094c3.247,0.75,5.271,3.99,4.522,7.237
				c-3.701,16.674-4.928,26.167-5.179,34.615c-0.101,3.349,2.977,3.791,2.132,9.111c-0.362,2.313-1.941,2.886-1.941,3.962h-36.093
				c-0.181-1.066-1.458-0.734-1.85-3.017c-0.603-3.51,0.734-5.028,0.06-8.458c-3.721-18.896-3.51-29.496-3.51-35.198
				C609.08,214.123,611.944,210.73,615.855,210.091z"/>
			<path style="opacity:0.4;enable-background:new    ;" d="M615.916,228.495c1.83,3.912,1.006,11.635-4.958,14.652
				c-0.402-3.228-0.241-6.084-0.473-8.618C611.967,232.244,613.8,230.208,615.916,228.495z"/>
			<path style="fill:#FDBBB5;" d="M616.61,222.622c-0.473,2.152-1.026,4.194-1.579,6.265c-0.553,2.072-1.167,4.153-1.82,6.165
				c-1.291,4.15-2.819,8.223-4.576,12.199c-0.914,2.072-1.951,4.087-3.107,6.034c-0.706,1.236-1.798,2.207-3.107,2.766
				c-1.283,0.505-2.697,0.573-4.023,0.191c-0.841-0.244-1.644-0.607-2.383-1.076c-0.59-0.366-1.151-0.776-1.68-1.227
				c-1.751-1.559-3.314-3.317-4.656-5.24c-1.279-1.804-2.435-3.692-3.459-5.652l3.671-2.615c1.408,1.388,2.937,2.826,4.425,4.143
				c1.371,1.274,2.852,2.425,4.425,3.439c0.434,0.316,0.938,0.523,1.468,0.603c0.07-0.07-0.342-0.211-0.935,0
				c-0.33,0.134-0.628,0.337-0.875,0.593c0.86-1.726,1.633-3.495,2.313-5.3c1.438-3.701,2.665-7.613,3.811-11.525
				c1.146-3.912,2.233-7.935,3.238-11.837L616.61,222.622z"/>
			<path style="fill:#263238;" d="M622.422,216.98c1.629,4.626-5.028,19.711-5.028,19.711l-13.466-8.759
				c0,0,1.961-9.564,6.627-14.813C615.101,208.029,620.28,210.795,622.422,216.98z"/>
			<path style="fill:#FDBBB5;" d="M590.965,244.605c3.651-1.669-3.178-6.919-3.761-10.389c-0.091-0.684-1.217-0.131-1.006,1.167
				c0.603,3.681-1.177,3.661-0.593,5.461C585.605,240.844,588.783,245.621,590.965,244.605z"/>
			<path style="fill:#FDBBB5;" d="M582.669,241.136c-0.063,0.613,0.173,1.219,0.634,1.629l0.201,0.171
				c1.267,0.994,2.765,1.651,4.354,1.911l1.006,0.151l2.916-2.615c-2.725-3.701-4.898-4.023-4.898-4.023l-0.805-0.624
				c-1.539-3.188-3.097-0.624-3.168,1.388L582.669,241.136z"/>
			<path style="fill:#FDBBB5;" d="M639.226,173.655c-3.71-5.537-11.206-7.018-16.743-3.308c-7.724,5.179-6.255,18.223-2.806,25.584
				c3.842,8.176,14.834,8.578,20.013,0.533c3.48-5.32,2.715-8.991,1.468-17.72C640.91,176.923,640.249,175.182,639.226,173.655z"/>
			<path style="fill:#263238;" d="M640.734,202.286c24.426-8.138,1.58-28.62-0.431-28.872c0,0,0.422-6.698-9.886-6.698
				c-7.713,0-13.315,4.184-13.637,8.629c-0.322,4.445,3.409,7.714,6.939,9.996C623.72,185.342,615.423,210.719,640.734,202.286z"/>
			<path style="fill:#263238;" d="M621.427,174.34c1.009,0.928,1.874,2.003,2.564,3.188c5.903,1.086,17.629,0.583,20.988-0.282
				c0.332-1.006-0.674-3.218-0.674-3.218L621.427,174.34z"/>
			<path style="opacity:0.3;fill:#FFFFFF;" d="M621.427,174.34c1.009,0.928,1.874,2.003,2.564,3.188
				c5.903,1.086,17.629,0.583,20.988-0.282c0.332-1.006-0.674-3.218-0.674-3.218L621.427,174.34z"/>
			<path style="fill:#407BFF;" d="M630.334,160.313c-13.875-0.022-15.892,13.639-15.892,13.639h-3.127v0.762
				c1.673,0.565,3.395,0.97,5.144,1.21c7.307,0.941,30.013,2.006,30.607,0C649.229,168.595,642.247,160.392,630.334,160.313z"/>
			<path style="fill:#407BFF;" d="M626.949,160.661c3.889,0.034,7.789,4.371,7.789,4.371l5.996-0.202
				c-2.679-4.147-4.64-4.46-6.814-5.155c-2.238-0.176-4.486-0.176-6.724,0C627.05,159.984,626.966,160.319,626.949,160.661z"/>
			<path style="opacity:0.2;enable-background:new    ;" d="M636.15,173.852c-1.491-9.537-8.562-12.9-8.641-12.9
				c-0.006-0.003-0.013-0.006-0.019-0.009c-0.2-0.099-0.282-0.341-0.183-0.54c0-0.001,0.001-0.002,0.001-0.003
				c0.093-0.209,0.339-0.303,0.548-0.21c0.314,0.09,7.565,3.519,9.123,13.538c0,0.003,0.001,0.005,0.001,0.007
				c0.029,0.227-0.133,0.435-0.36,0.463h-0.056C636.358,174.207,636.179,174.057,636.15,173.852z"/>
			<path style="fill:#FDBBB5;" d="M624.856,182.827c1.629,1.609,1.006,4.958,0,6.758c-1.076,2.011-3.188,2.514-4.194,0.251
				c-0.742-1.727-0.856-3.659-0.322-5.461C621.005,182.204,623.227,181.218,624.856,182.827z"/>
			<path style="fill:#407BFF;" d="M650.45,264.799c16.604,22.467,4.817,27.752,21.439,92.475
				c6.919,27.465,14.705,95.554,14.705,95.554h-12.068c0,0-14.572-64.896-23.673-92.662c-11.263-34.374-26.912-95.367-26.912-95.367
				H650.45z"/>
			<path style="opacity:0.3;" d="M650.45,264.799c16.604,22.467,4.817,27.752,21.439,92.475
				c6.919,27.465,14.705,95.554,14.705,95.554h-12.068c0,0-14.572-64.896-23.673-92.662c-11.263-34.374-26.912-95.367-26.912-95.367
				H650.45z"/>
			<path style="opacity:0.4;enable-background:new    ;" d="M633.525,300.893c2.856,10.449,6.094,22.064,9.333,33.187
				c2.243-10.218,2.645-31.065-2.595-50.173C637.518,288.634,634.511,295.221,633.525,300.893z"/>
			<polygon style="fill:#FDBBB5;" points="627.391,444.27 618.5,444.27 617.806,464.846 626.697,464.846 			"/>
			<path style="fill:#263238;" d="M615.614,459.315c-2.363,1.971-3.439,4.033-10.409,5.531c-1.549,0.332-1.358,4.023,2.373,4.023
				c3.731,0,7.683-0.282,10.378-0.282c4.395,0,6.074,0.211,9.554,0.272c0.053,0,0.107-0.003,0.16-0.009
				c0.784-0.089,1.347-0.796,1.258-1.58l-1.136-7.895c-0.046-0.351-0.35-0.611-0.704-0.603h-9.986
				C616.558,458.775,616.032,458.967,615.614,459.315z"/>
			<polygon style="opacity:0.2;enable-background:new    ;" points="627.039,454.88 618.148,454.88 618.5,444.27 627.391,444.27 			
				"/>
			<path style="fill:#407BFF;" d="M640.967,264.799c10.831,22.467-2.031,28.118-2.383,97.61
				c-0.141,27.465-9.805,90.419-9.805,90.419H616.66c0,0,2.112-64.896,0.151-92.662c-2.404-34.374-2.404-95.367-2.404-95.367
				H640.967z"/>
		</g>
		<g style="opacity:0.3;">
			<g>
				<path d="M622.276,184.453c1.056,1.171,0.934,2.962-0.218,4.015c-0.357,0.326,0.174,0.856,0.53,0.53
					c0.691-0.632,1.114-1.521,1.17-2.456c0.058-0.962-0.311-1.91-0.951-2.62C622.483,183.564,621.954,184.096,622.276,184.453
					L622.276,184.453z"/>
			</g>
		</g>
		<path style="opacity:0.3;" d="M640.967,264.799c10.831,22.467-2.031,28.118-2.383,97.61c-0.141,27.465-9.805,90.419-9.805,90.419
			H616.66c0,0,2.112-64.896,0.151-92.662c-2.404-34.374-2.404-95.367-2.404-95.367H640.967z"/>
	</g>
</g>
</svg>
